<?xml version="1.0" encoding="UTF-8" standalone="no"?>
<svg
   xmlns:dc="http://purl.org/dc/elements/1.1/"
   xmlns:cc="http://creativecommons.org/ns#"
   xmlns:rdf="http://www.w3.org/1999/02/22-rdf-syntax-ns#"
   xmlns:svg="http://www.w3.org/2000/svg"
   xmlns="http://www.w3.org/2000/svg"
   xmlns:sodipodi="http://sodipodi.sourceforge.net/DTD/sodipodi-0.dtd"
   xmlns:inkscape="http://www.inkscape.org/namespaces/inkscape"
   version="1.1"
   id="Layer_1"
   x="0px"
   y="0px"
   width="42px"
   height="42px"
   viewBox="0 0 42 42"
   xml:space="preserve"
   sodipodi:docname="apply-layer-light.svg"
   inkscape:version="1.0.2-2 (e86c870879, 2021-01-15)"><metadata
   id="metadata9"><rdf:RDF><cc:Work
       rdf:about=""><dc:format>image/svg+xml</dc:format><dc:type
         rdf:resource="http://purl.org/dc/dcmitype/StillImage" /><dc:title></dc:title></cc:Work></rdf:RDF></metadata><defs
   id="defs7" /><sodipodi:namedview
   pagecolor="#ffffff"
   bordercolor="#666666"
   borderopacity="1"
   objecttolerance="10"
   gridtolerance="10"
   guidetolerance="10"
   inkscape:pageopacity="0"
   inkscape:pageshadow="2"
   inkscape:window-width="1920"
   inkscape:window-height="1009"
   id="namedview5"
   showgrid="false"
   inkscape:zoom="7.0879037"
   inkscape:cx="-9.6703761"
   inkscape:cy="16.358744"
   inkscape:window-x="1912"
   inkscape:window-y="-8"
   inkscape:window-maximized="1"
   inkscape:current-layer="Layer_1"
   inkscape:document-rotation="0" />
<path
   id="path843"
   style="fill:none;fill-opacity:1;stroke:#3d3d3d;stroke-width:3;stroke-linecap:round;stroke-linejoin:miter;stroke-miterlimit:4;stroke-dasharray:none;stroke-opacity:1"
   d="M 8.4488059,31.123021 2.8646901,32.24518 v 0 l 9.9787439,8.158664 25.776531,-5.64703 -9.434865,-7.713985 -2.832369,0.577023"
   sodipodi:nodetypes="ccccccc" />
<path
   d="m 37.756552,6.9464129 -2.23068,-1.795335 c -1.099527,-0.883714 -1.738592,-0.873482 -2.67998,0.2893 L 16.632993,25.448597 9.0879346,19.179808 c -1.040923,-0.874412 -1.69208,-0.827901 -2.547888,0.241859 l -1.721847,2.241843 c -0.873482,1.099526 -0.761855,1.723708 0.270695,2.586027 l 10.7534074,8.894815 c 1.106968,0.930226 1.730219,0.834413 2.586026,-0.20651 L 38.03655,9.6254629 c 0.920923,-1.106969 0.86511,-1.768359 -0.279998,-2.67905 z"
   id="path2-3"
   style="fill:#3d3d3d;fill-opacity:1;stroke-width:1" /></svg>
