<?xml version="1.0" encoding="UTF-8" standalone="no"?>
<svg
   xmlns:dc="http://purl.org/dc/elements/1.1/"
   xmlns:cc="http://creativecommons.org/ns#"
   xmlns:rdf="http://www.w3.org/1999/02/22-rdf-syntax-ns#"
   xmlns:svg="http://www.w3.org/2000/svg"
   xmlns="http://www.w3.org/2000/svg"
   xmlns:sodipodi="http://sodipodi.sourceforge.net/DTD/sodipodi-0.dtd"
   xmlns:inkscape="http://www.inkscape.org/namespaces/inkscape"
   fill="currentColor"
   fill-rule="evenodd"
   height="1em"
   style="flex:none;line-height:1"
   viewBox="0 0 24 24"
   width="1em"
   version="1.1"
   id="svg6"
   sodipodi:docname="comfyui-light.svg"
   inkscape:version="1.0.2-2 (e86c870879, 2021-01-15)">
  <metadata
     id="metadata12">
    <rdf:RDF>
      <cc:Work
         rdf:about="">
        <dc:format>image/svg+xml</dc:format>
        <dc:type
           rdf:resource="http://purl.org/dc/dcmitype/StillImage" />
        <dc:title>ComfyUI</dc:title>
      </cc:Work>
    </rdf:RDF>
  </metadata>
  <defs
     id="defs10" />
  <sodipodi:namedview
     pagecolor="#ffffff"
     bordercolor="#666666"
     borderopacity="1"
     objecttolerance="10"
     gridtolerance="10"
     guidetolerance="10"
     inkscape:pageopacity="0"
     inkscape:pageshadow="2"
     inkscape:window-width="1920"
     inkscape:window-height="1009"
     id="namedview8"
     showgrid="false"
     inkscape:zoom="17.541667"
     inkscape:cx="7.887633"
     inkscape:cy="11.179484"
     inkscape:window-x="-8"
     inkscape:window-y="-8"
     inkscape:window-maximized="1"
     inkscape:current-layer="svg6"
     inkscape:document-rotation="0" />
  <title
     id="title2">ComfyUI</title>
  <path
     d="m 6.4916699,22.733969 c -0.5143087,0 -0.9290153,-0.187433 -1.1997518,-0.541472 -0.2779802,-0.364 -0.350418,-0.872878 -0.199204,-1.394429 l 0.6084778,-2.09617 A 0.54781117,0.54781117 0 0 0 5.6106447,18.216565 0.56320421,0.56320421 0 0 0 5.163341,17.996535 H 3.4130616 c -0.5143086,0 -0.9290153,-0.187434 -1.1997517,-0.541474 C 1.9353296,17.090155 1.8628918,16.582185 2.0141058,16.060633 L 4.1057485,8.892003 4.3366441,8.1042421 C 4.6472213,7.035784 5.7781572,6.1665298 6.8592919,6.1665298 h 2.0943592 c 0.2499106,0 0.4699411,-0.1629852 0.5387561,-0.400219 L 10.184189,3.3822003 c 0.310577,-1.0684582 1.441513,-1.9368067 2.523553,-1.9368067 l 4.477564,-0.00724 h 3.277812 c 0.514309,0 0.929921,0.1865275 1.199752,0.5405674 0.27798,0.3640001 0.350418,0.8728759 0.199204,1.3944284 L 20.92491,6.6020622 c -0.310577,1.0666473 -1.442419,1.9349947 -2.523554,1.9349947 l -4.487524,0.00914 H 11.820378 A 0.55958232,0.55958232 0 0 0 11.282527,8.9455042 L 9.5367752,14.925247 a 0.54781117,0.54781117 0 0 0 0.090548,0.48624 c 0.1068466,0.138536 0.2716414,0.220029 0.4482098,0.220029 l 2.965424,-0.0055 h 3.268758 c 0.514308,0 0.929015,0.186528 1.199752,0.541473 0.27798,0.364 0.350418,0.872875 0.199203,1.394429 l -0.93807,3.22801 c -0.309672,1.067511 -1.441514,1.93586 -2.522647,1.93586 l -4.4884305,0.0091 H 6.4907644 Z"
     id="path4"
     style="fill:#3d3d3d;fill-opacity:1;stroke-width:0.999994" />
</svg>
