<?xml version="1.0" encoding="UTF-8" standalone="no"?>
<svg
   xmlns:dc="http://purl.org/dc/elements/1.1/"
   xmlns:cc="http://creativecommons.org/ns#"
   xmlns:rdf="http://www.w3.org/1999/02/22-rdf-syntax-ns#"
   xmlns:svg="http://www.w3.org/2000/svg"
   xmlns="http://www.w3.org/2000/svg"
   xmlns:sodipodi="http://sodipodi.sourceforge.net/DTD/sodipodi-0.dtd"
   xmlns:inkscape="http://www.inkscape.org/namespaces/inkscape"
   fill="currentColor"
   fill-rule="evenodd"
   height="1em"
   style="flex:none;line-height:1"
   viewBox="0 0 24 24"
   width="1em"
   version="1.1"
   id="svg6"
   sodipodi:docname="comfyui-dark.svg"
   inkscape:version="1.0.2-2 (e86c870879, 2021-01-15)">
  <metadata
     id="metadata12">
    <rdf:RDF>
      <cc:Work
         rdf:about="">
        <dc:format>image/svg+xml</dc:format>
        <dc:type
           rdf:resource="http://purl.org/dc/dcmitype/StillImage" />
        <dc:title>ComfyUI</dc:title>
      </cc:Work>
    </rdf:RDF>
  </metadata>
  <defs
     id="defs10" />
  <sodipodi:namedview
     pagecolor="#ffffff"
     bordercolor="#666666"
     borderopacity="1"
     objecttolerance="10"
     gridtolerance="10"
     guidetolerance="10"
     inkscape:pageopacity="0"
     inkscape:pageshadow="2"
     inkscape:window-width="1920"
     inkscape:window-height="1009"
     id="namedview8"
     showgrid="false"
     inkscape:zoom="17.541667"
     inkscape:cx="7.887633"
     inkscape:cy="11.179484"
     inkscape:window-x="1912"
     inkscape:window-y="-8"
     inkscape:window-maximized="1"
     inkscape:current-layer="svg6"
     inkscape:document-rotation="0" />
  <title
     id="title2">ComfyUI</title>
  <path
     d="m 6.6544548,22.790966 c -0.5198154,0 -0.9389625,-0.18944 -1.2125978,-0.54727 -0.2809566,-0.367897 -0.35417,-0.882223 -0.2013369,-1.409359 l 0.614993,-2.118614 A 0.55367667,0.55367667 0 0 0 5.7639963,18.225193 0.56923453,0.56923453 0 0 0 5.3119032,18.002808 H 3.5428833 c -0.5198154,0 -0.9389624,-0.189442 -1.2125976,-0.547272 C 2.049329,17.086723 1.9761156,16.573314 2.1289487,16.046178 L 4.242987,8.8007913 4.4763547,8.0045957 C 4.7902574,6.9246974 5.9333024,6.0461361 7.026013,6.0461361 h 2.1167838 c 0.2525865,0 0.4749729,-0.1647304 0.5445247,-0.4045043 L 10.38651,3.2319943 c 0.313904,-1.0798984 1.456948,-1.9575445 2.550574,-1.9575445 l 4.525506,-0.00732 h 3.312908 c 0.519816,0 0.939878,0.1885247 1.212599,0.5463554 0.280956,0.3678975 0.35417,0.8822219 0.201336,1.4093588 l -0.947198,3.2634853 c -0.313903,1.0780681 -1.457863,1.9557131 -2.550574,1.9557131 l -4.535573,0.00924 h -2.115869 a 0.56557386,0.56557386 0 0 0 -0.54361,0.4035893 L 9.7321646,14.898635 a 0.55367667,0.55367667 0 0 0 0.091518,0.491446 c 0.1079906,0.14002 0.2745504,0.222385 0.4530084,0.222385 l 2.997176,-0.0055 h 3.303757 c 0.519815,0 0.938962,0.188525 1.212598,0.547271 0.280957,0.367897 0.35417,0.882222 0.201337,1.40936 l -0.948115,3.262572 c -0.312988,1.078942 -1.456948,1.956588 -2.549658,1.956588 l -4.5364886,0.0092 H 6.6535396 Z"
     id="path4"
     style="fill:#c8c8c8;fill-opacity:1;stroke-width:1" />
</svg>
