<?xml version="1.0" encoding="UTF-8" standalone="no"?>
<svg
   xmlns:dc="http://purl.org/dc/elements/1.1/"
   xmlns:cc="http://creativecommons.org/ns#"
   xmlns:rdf="http://www.w3.org/1999/02/22-rdf-syntax-ns#"
   xmlns:svg="http://www.w3.org/2000/svg"
   xmlns="http://www.w3.org/2000/svg"
   xmlns:sodipodi="http://sodipodi.sourceforge.net/DTD/sodipodi-0.dtd"
   xmlns:inkscape="http://www.inkscape.org/namespaces/inkscape"
   width="512"
   height="512"
   viewBox="0 0 135.46667 135.46667"
   version="1.1"
   id="svg8"
   inkscape:version="1.0.2-2 (e86c870879, 2021-01-15)"
   sodipodi:docname="control-lineart-light.svg">
  <defs
     id="defs2" />
  <sodipodi:namedview
     id="base"
     pagecolor="#ffffff"
     bordercolor="#666666"
     borderopacity="1.0"
     inkscape:pageopacity="0.0"
     inkscape:pageshadow="2"
     inkscape:zoom="0.98994949"
     inkscape:cx="122.98397"
     inkscape:cy="223.93646"
     inkscape:document-units="mm"
     inkscape:current-layer="layer1"
     inkscape:document-rotation="0"
     showgrid="false"
     units="px"
     inkscape:window-width="1920"
     inkscape:window-height="1009"
     inkscape:window-x="1912"
     inkscape:window-y="-8"
     inkscape:window-maximized="1" />
  <metadata
     id="metadata5">
    <rdf:RDF>
      <cc:Work
         rdf:about="">
        <dc:format>image/svg+xml</dc:format>
        <dc:type
           rdf:resource="http://purl.org/dc/dcmitype/StillImage" />
        <dc:title></dc:title>
      </cc:Work>
    </rdf:RDF>
  </metadata>
  <g
     inkscape:label="Layer 1"
     inkscape:groupmode="layer"
     id="layer1">
    <path
       style="fill:none;stroke:#3d3d3d;stroke-width:7.81264;stroke-linecap:round;stroke-linejoin:miter;stroke-miterlimit:4;stroke-dasharray:none;stroke-opacity:1"
       d="m 68.638019,35.497077 c -3.894628,0.495627 -6.656394,0.167355 -12.505194,2.084199 -3.942153,-0.01321 -6.330103,-0.674018 -7.91995,-1.667361 C 38.438041,25.138721 22.958831,3.4172893 19.659354,5.0677796 19.164252,3.4174393 13.145782,16.772519 12.7815,22.158205 c -0.222391,3.287895 2.084198,32.305077 2.084198,32.305077 0.781555,5.627335 1.576302,11.254672 3.126299,16.882007 0.361526,4.571297 -0.963417,9.423674 -1.66736,14.172551 0.668945,7.159185 4.883854,13.845575 8.336794,20.63356 4.487447,5.96187 10.441708,8.9901 16.256748,12.29678 l 12.713611,7.2947"
       id="path847"
       sodipodi:nodetypes="ccccscccccc" />
    <path
       style="fill:none;stroke:#3d3d3d;stroke-width:2.96451;stroke-linecap:round;stroke-linejoin:miter;stroke-miterlimit:4;stroke-dasharray:none;stroke-opacity:1"
       d="m 50.112505,100.82336 c -4.70946,4.01932 -3.806971,4.03011 -4.658512,5.29377 0.336417,2.39654 -0.185569,4.6214 1.05875,7.19952 0.499506,1.80984 1.446156,3.47063 2.541008,5.08202 2.015609,0.25355 2.80237,1.22392 6.987772,0.21175 2.446127,-0.68385 4.9422,-1.2678 7.199523,-2.32925 l 4.235012,-2.54101 c 0.957636,-1.47616 0.853106,-2.73986 0.847002,-4.02327"
       id="path849"
       sodipodi:nodetypes="cccccccc" />
    <path
       style="fill:none;stroke:#3d3d3d;stroke-width:7.81264;stroke-linecap:round;stroke-linejoin:miter;stroke-miterlimit:4;stroke-dasharray:none;stroke-opacity:1"
       d="m 50.021908,120.23998 c 0.960145,2.33633 2.902279,4.39207 5.231813,6.33714 1.525752,1.22526 3.239394,2.26261 5.158128,3.09488 1.400218,0.49117 2.996474,0.88433 4.789691,1.179 l 2.43169,-0.29475"
       id="path851"
       sodipodi:nodetypes="ccccc" />
    <path
       style="fill:none;stroke:#3d3d3d;stroke-width:2.07515;stroke-linecap:round;stroke-linejoin:miter;stroke-miterlimit:4;stroke-dasharray:none;stroke-opacity:1"
       d="m 69.096776,98.221596 c -0.697299,0.02495 -1.444217,0.04992 -1.871628,0.07487 -4.075619,-1.24662 -4.512273,-1.183213 -5.165698,-1.197843 -1.732876,0.773607 -1.696132,1.547213 -1.946494,2.320819 0.153189,1.537718 0.657322,2.473828 1.796766,2.320818 l 1.272707,-0.97324 c 0.930957,-0.66846 1.509164,-0.0435 2.021359,0.82351 l 0.598921,2.17109 c -1.135784,-0.26683 -1.000118,0.50661 -0.598921,1.49731 0.660158,1.45026 1.287286,2.53099 1.946494,2.99461 0.46815,0.0519 0.985869,0.0873 1.871629,0"
       id="path853"
       sodipodi:nodetypes="ccccccccccc" />
    <path
       style="fill:none;stroke:#3d3d3d;stroke-width:2.96451;stroke-linecap:round;stroke-linejoin:miter;stroke-miterlimit:4;stroke-dasharray:none;stroke-opacity:1"
       d="m 59.747159,95.953097 c 0.449423,-0.05618 -3.855741,-18.933013 -4.235011,-19.904558 -0.572195,-1.465744 -2.549797,-4.342186 -5.479048,-6.087832 -1.554555,-0.817342 -3.871737,-0.663654 -5.849613,-0.688191 -2.748037,0.251762 -4.699724,1.299877 -6.458393,2.541007 0.05749,2.095307 0.100504,4.205092 0.741127,5.717269 0.687762,1.817668 1.89807,3.461155 3.176258,5.082014 1.355513,1.37483 2.895324,1.828179 4.446763,2.223382 2.258379,0.158075 4.170285,-0.550032 6.034896,-1.376377 1.645636,-1.181408 3.136372,-2.4919 3.599758,-4.658515"
       id="path855"
       sodipodi:nodetypes="cscccccccc" />
    <path
       style="fill:none;stroke:#3d3d3d;stroke-width:2.96451;stroke-linecap:round;stroke-linejoin:miter;stroke-miterlimit:4;stroke-dasharray:none;stroke-opacity:1"
       d="m 46.406869,81.342303 c -0.918217,-0.107114 -1.238111,-1.30629 -1.588129,-5.18789 0.10484,-2.351007 1.050648,-4.462602 2.541008,-4.552638 1.316469,0.223027 1.856558,1.809112 1.79988,5.505517 -0.224227,2.952469 -1.260355,4.100711 -2.752759,4.235011 z"
       id="path857"
       sodipodi:nodetypes="ccccc" />
    <path
       style="fill:none;stroke:#3d3d3d;stroke-width:2.96451;stroke-linecap:round;stroke-linejoin:miter;stroke-miterlimit:4;stroke-dasharray:none;stroke-opacity:1"
       d="m 30.102069,15.487853 c 2.515114,2.80405 1.137622,0.667486 8.258274,9.317027 2.124433,4.081182 5.008688,7.934416 6.246644,12.28154 0.947708,4.114061 0.288105,4.913045 -0.317625,5.823141 -2.620954,0.172141 -5.207539,0.619221 -7.728896,1.588132 -4.828861,2.997202 -5.001479,4.015501 -6.034896,5.399639"
       id="path859"
       sodipodi:nodetypes="cccccc" />
    <path
       style="fill:none;stroke:#3d3d3d;stroke-width:2.07515;stroke-linecap:round;stroke-linejoin:miter;stroke-miterlimit:4;stroke-dasharray:none;stroke-opacity:1"
       d="m 48.524376,103.99962 c -6.247041,-0.60076 -11.446957,0.89274 -16.728301,2.22338 -6.591707,2.37638 -12.976996,5.99129 -19.375184,9.52879"
       id="path861"
       sodipodi:nodetypes="ccc" />
    <path
       style="fill:none;stroke:#3d3d3d;stroke-width:2.07515;stroke-linecap:round;stroke-linejoin:miter;stroke-miterlimit:4;stroke-dasharray:none;stroke-opacity:1"
       d="m 52.547638,105.79951 c -5.611392,0.35112 -11.222784,1.78191 -16.834177,4.12912 -6.346387,2.72484 -11.545103,6.82687 -16.940051,10.69342"
       id="path863"
       sodipodi:nodetypes="ccc" />
    <path
       style="fill:none;stroke:#3d3d3d;stroke-width:2.07515;stroke-linecap:round;stroke-linejoin:miter;stroke-miterlimit:4;stroke-dasharray:none;stroke-opacity:1"
       d="m 49.58313,108.65814 c -5.459531,0.97249 -10.855644,2.06124 -15.140172,5.1879 -6.660324,3.72819 -10.469162,8.88213 -15.669548,13.34029"
       id="path865"
       sodipodi:nodetypes="ccc" />
    <path
       style="fill:none;stroke:#3d3d3d;stroke-width:2.07515;stroke-linecap:round;stroke-linejoin:miter;stroke-miterlimit:4;stroke-dasharray:none;stroke-opacity:1"
       d="m 53.182889,109.18752 c -4.002427,1.14294 -7.017097,3.76752 -10.269905,6.03489 -3.121613,3.47795 -5.721691,7.47744 -8.046525,11.75217 l -2.646883,6.88189"
       id="path867"
       sodipodi:nodetypes="cccc" />
    <path
       style="fill:none;stroke:#3d3d3d;stroke-width:2.07515;stroke-linecap:round;stroke-linejoin:miter;stroke-miterlimit:4;stroke-dasharray:none;stroke-opacity:1"
       d="m 51.38301,113.74016 c -2.348365,3.06286 -5.077726,6.21039 -5.717269,8.89352 l -2.117506,7.94065"
       id="path869"
       sodipodi:nodetypes="ccc" />
    <path
       style="fill:none;stroke:#3d3d3d;stroke-width:2.07515;stroke-linecap:round;stroke-linejoin:miter;stroke-miterlimit:4;stroke-dasharray:none;stroke-opacity:1"
       d="m 53.924016,113.5284 c -2.72876,3.96257 -3.520992,8.24789 -5.187891,12.38742"
       id="path871"
       sodipodi:nodetypes="cc" />
    <path
       style="fill:none;stroke:#3d3d3d;stroke-width:2.07515;stroke-linecap:round;stroke-linejoin:miter;stroke-miterlimit:4;stroke-dasharray:none;stroke-opacity:1"
       d="m 56.359149,113.84604 c -1.819177,4.85913 -1.786242,5.70536 -2.541008,8.25827"
       id="path873"
       sodipodi:nodetypes="cc" />
    <path
       style="fill:none;stroke:#3d3d3d;stroke-width:7.81264;stroke-linecap:round;stroke-linejoin:miter;stroke-miterlimit:4;stroke-dasharray:none;stroke-opacity:1"
       d="m 68.638019,35.497077 c 3.89462,0.495627 6.656389,0.167355 12.505184,2.084199 3.942152,-0.01321 6.330114,-0.674018 7.919962,-1.667361 C 98.838001,25.138721 114.3172,3.4172893 117.61668,5.0677796 c 0.4951,-1.6503403 6.51357,11.7047394 6.87785,17.0904254 0.22239,3.287895 -2.08419,32.305073 -2.08419,32.305073 -0.78156,5.627337 -1.57631,11.254675 -3.1263,16.882012 -0.36152,4.571299 0.96341,9.423673 1.66735,14.172549 -0.66895,7.159187 -4.88386,13.845574 -8.3368,20.633561 -4.48744,5.96187 -10.44169,8.9901 -16.256735,12.29678 l -12.71361,7.2947"
       id="path847-1"
       sodipodi:nodetypes="ccccscccccc" />
    <path
       style="fill:none;stroke:#3d3d3d;stroke-width:2.96451;stroke-linecap:round;stroke-linejoin:miter;stroke-miterlimit:4;stroke-dasharray:none;stroke-opacity:1"
       d="m 89.074624,100.82337 c 4.709463,4.01931 3.806968,4.0301 4.658516,5.29376 -0.336424,2.39654 0.185568,4.6214 -1.058752,7.19952 -0.499506,1.80984 -1.446158,3.47063 -2.541011,5.08202 -2.015601,0.25355 -2.802366,1.22392 -6.987779,0.21175 -2.446121,-0.68385 -4.942191,-1.2678 -7.199516,-2.32925 l -4.235011,-2.54101 c -0.957644,-1.47616 -0.853106,-2.73986 -0.847,-4.02327"
       id="path849-1"
       sodipodi:nodetypes="cccccccc" />
    <path
       style="fill:none;stroke:#3d3d3d;stroke-width:7.81264;stroke-linecap:round;stroke-linejoin:miter;stroke-miterlimit:4;stroke-dasharray:none;stroke-opacity:1"
       d="m 87.254131,120.23998 c -0.960147,2.33633 -2.902284,4.39207 -5.231815,6.33714 -1.525752,1.22526 -3.239401,2.26261 -5.158132,3.09488 -1.400217,0.49117 -2.996472,0.88433 -4.78969,1.179 l -2.431696,-0.29475"
       id="path851-8"
       sodipodi:nodetypes="ccccc" />
    <path
       style="fill:none;stroke:#3d3d3d;stroke-width:2.07515;stroke-linecap:round;stroke-linejoin:miter;stroke-miterlimit:4;stroke-dasharray:none;stroke-opacity:1"
       d="m 70.090348,98.221596 c 0.697298,0.02499 1.444219,0.04986 1.871635,0.07484 4.075617,-1.246617 4.512265,-1.183211 5.165697,-1.197844 1.732868,0.773611 1.696129,1.54721 1.946492,2.320821 -0.153187,1.537717 -0.65732,2.473817 -1.796767,2.320827 l -1.272713,-0.97325 c -0.930955,-0.66846 -1.50916,-0.0435 -2.021349,0.82352 l -0.598922,2.17109 c 1.135783,-0.26684 1.000109,0.50661 0.598922,1.4973 -0.660166,1.45027 -1.287289,2.531 -1.946503,2.99461 -0.468144,0.0519 -0.985868,0.0873 -1.871624,0"
       id="path853-2"
       sodipodi:nodetypes="ccccccccccc" />
    <path
       style="fill:none;stroke:#3d3d3d;stroke-width:2.96451;stroke-linecap:round;stroke-linejoin:miter;stroke-miterlimit:4;stroke-dasharray:none;stroke-opacity:1"
       d="m 79.439963,95.953099 c -0.449421,-0.05613 3.855741,-18.933011 4.235011,-19.904559 0.5722,-1.465743 2.549807,-4.342193 5.479056,-6.087834 1.554561,-0.817342 3.87174,-0.66365 5.849616,-0.688188 2.748035,0.251764 4.699726,1.299872 6.458384,2.541 -0.0575,2.095309 -0.1005,4.205095 -0.74111,5.71728 -0.68778,1.817663 -1.898083,3.461153 -3.176274,5.082011 -1.355514,1.37483 -2.895318,1.828173 -4.446764,2.223376 -2.258379,0.158083 -4.170283,-0.550026 -6.034893,-1.376376 -1.645634,-1.181408 -3.136374,-2.491902 -3.599756,-4.658517"
       id="path855-1"
       sodipodi:nodetypes="cscccccccc" />
    <path
       style="fill:none;stroke:#3d3d3d;stroke-width:2.96451;stroke-linecap:round;stroke-linejoin:miter;stroke-miterlimit:4;stroke-dasharray:none;stroke-opacity:1"
       d="m 92.780259,81.342303 c 0.918215,-0.107114 1.238113,-1.306292 1.588129,-5.187893 -0.104874,-2.351006 -1.050641,-4.462595 -2.541,-4.552634 -1.316477,0.223025 -1.856565,1.809114 -1.799882,5.505516 0.224223,2.952472 1.260354,4.100715 2.752753,4.235011 z"
       id="path857-7"
       sodipodi:nodetypes="ccccc" />
    <path
       style="fill:none;stroke:#3d3d3d;stroke-width:2.96451;stroke-linecap:round;stroke-linejoin:miter;stroke-miterlimit:4;stroke-dasharray:none;stroke-opacity:1"
       d="m 109.08506,15.487853 c -2.51511,2.80405 -1.13761,0.667486 -8.25827,9.317027 -2.124434,4.081182 -5.008693,7.934416 -6.24665,12.28154 -0.947705,4.114061 -0.2881,4.913045 0.317624,5.823141 2.620955,0.172141 5.207546,0.619221 7.728906,1.588132 4.82886,2.997202 5.00147,4.015501 6.0349,5.399639"
       id="path859-6"
       sodipodi:nodetypes="cccccc" />
    <path
       style="fill:none;stroke:#3d3d3d;stroke-width:2.07515;stroke-linecap:round;stroke-linejoin:miter;stroke-miterlimit:4;stroke-dasharray:none;stroke-opacity:1"
       d="m 90.662753,103.99962 c 6.247038,-0.60076 11.446957,0.89274 16.728307,2.22338 6.59171,2.37638 12.97698,5.99129 19.37517,9.52879"
       id="path861-8"
       sodipodi:nodetypes="ccc" />
    <path
       style="fill:none;stroke:#3d3d3d;stroke-width:2.07515;stroke-linecap:round;stroke-linejoin:miter;stroke-miterlimit:4;stroke-dasharray:none;stroke-opacity:1"
       d="m 86.639491,105.79951 c 5.611391,0.35112 11.222789,1.78191 16.834179,4.12912 6.34639,2.72484 11.5451,6.82687 16.94004,10.69342"
       id="path863-1"
       sodipodi:nodetypes="ccc" />
    <path
       style="fill:none;stroke:#3d3d3d;stroke-width:2.07515;stroke-linecap:round;stroke-linejoin:miter;stroke-miterlimit:4;stroke-dasharray:none;stroke-opacity:1"
       d="m 89.604,108.65814 c 5.459534,0.97249 10.85564,2.06124 15.14017,5.1879 6.66033,3.72819 10.46916,8.88213 15.66954,13.34029"
       id="path865-4"
       sodipodi:nodetypes="ccc" />
    <path
       style="fill:none;stroke:#3d3d3d;stroke-width:2.07515;stroke-linecap:round;stroke-linejoin:miter;stroke-miterlimit:4;stroke-dasharray:none;stroke-opacity:1"
       d="m 86.004232,109.18752 c 4.002434,1.14294 7.017101,3.76752 10.269919,6.03489 3.121603,3.47795 5.721689,7.47744 8.046519,11.75217 l 2.64688,6.88189"
       id="path867-7"
       sodipodi:nodetypes="cccc" />
    <path
       style="fill:none;stroke:#3d3d3d;stroke-width:2.07515;stroke-linecap:round;stroke-linejoin:miter;stroke-miterlimit:4;stroke-dasharray:none;stroke-opacity:1"
       d="m 87.804119,113.74016 c 2.348361,3.06286 5.07773,6.21039 5.717269,8.89352 l 2.117505,7.94065"
       id="path869-7"
       sodipodi:nodetypes="ccc" />
    <path
       style="fill:none;stroke:#3d3d3d;stroke-width:2.07515;stroke-linecap:round;stroke-linejoin:miter;stroke-miterlimit:4;stroke-dasharray:none;stroke-opacity:1"
       d="m 85.263114,113.5284 c 2.728757,3.96257 3.52099,8.24789 5.187886,12.38742"
       id="path871-5"
       sodipodi:nodetypes="cc" />
    <path
       style="fill:none;stroke:#3d3d3d;stroke-width:2.07515;stroke-linecap:round;stroke-linejoin:miter;stroke-miterlimit:4;stroke-dasharray:none;stroke-opacity:1"
       d="m 82.827974,113.84604 c 1.819176,4.85913 1.786246,5.70536 2.541011,8.25827"
       id="path873-7"
       sodipodi:nodetypes="cc" />
    <path
       style="fill:#3d3d3d;fill-opacity:1;stroke:none;stroke-width:0.264583px;stroke-linecap:butt;stroke-linejoin:miter;stroke-opacity:1"
       d="m 36.264465,71.088879 c 0.399435,-1.494038 2.409301,-4.043925 6.824819,-5.03754 3.172696,-0.651943 6.086477,-0.383047 8.882441,0.661459 2.896249,1.536296 4.720615,2.889158 5.79222,5.912998 0.636251,2.719581 -0.03709,5.191621 0.633371,8.615462 l -2.834822,1.346539 -0.543339,-7.748511 -5.57515,-5.268045 -7.795758,0.307106 -3.307292,1.984376 z"
       id="path2710"
       sodipodi:nodetypes="ccccccccccc" />
    <path
       style="fill:#3d3d3d;fill-opacity:1;stroke:none;stroke-width:0.264583px;stroke-linecap:butt;stroke-linejoin:miter;stroke-opacity:1"
       d="m 103.06605,71.606638 c -0.39944,-1.494038 -2.4093,-4.043925 -6.824819,-5.03754 -3.172696,-0.651943 -6.086477,-0.383047 -8.882441,0.661459 -2.896249,1.536296 -4.720615,2.889158 -5.79222,5.912998 -0.636251,2.719581 0.03709,5.191621 -0.633371,8.615462 l 2.834822,1.346539 0.543339,-7.748511 5.57515,-5.268045 7.795758,0.307106 3.307292,1.984376 z"
       id="path2710-9"
       sodipodi:nodetypes="ccccccccccc" />
  </g>
</svg>
