<?xml version="1.0" encoding="UTF-8" standalone="no"?>
<!-- Created with Inkscape (http://www.inkscape.org/) -->

<svg
   width="44.07082mm"
   height="35.34565mm"
   viewBox="0 0 44.07082 35.34565"
   version="1.1"
   id="svg2765"
   inkscape:export-xdpi="1177.3313"
   inkscape:export-ydpi="1177.3313"
   xmlns:inkscape="http://www.inkscape.org/namespaces/inkscape"
   xmlns:sodipodi="http://sodipodi.sourceforge.net/DTD/sodipodi-0.dtd"
   xmlns="http://www.w3.org/2000/svg"
   xmlns:svg="http://www.w3.org/2000/svg">
  <sodipodi:namedview
     id="namedview2767"
     pagecolor="#505050"
     bordercolor="#eeeeee"
     borderopacity="1"
     inkscape:showpageshadow="0"
     inkscape:pageopacity="0"
     inkscape:pagecheckerboard="0"
     inkscape:deskcolor="#505050"
     inkscape:document-units="mm"
     showgrid="false" />
  <defs
     id="defs2762" />
  <g
     inkscape:label="Calque 1"
     inkscape:groupmode="layer"
     id="layer1"
     transform="translate(-32.06384,-111.58819)">
    <path
       id="shape0"
       d="m 55.784513,130.74047 c 0.03769,2.57553 0.19285,5.11549 -0.02901,7.68736 -0.0267,0.30347 -0.117837,0.53744 -0.273105,0.70133 -0.04479,0.0467 -0.104797,0.0768 -0.169926,0.0851 -0.06513,0.008 -0.131605,-0.005 -0.188039,-0.0387 -0.05654,-0.0334 -0.09975,-0.0845 -0.122514,-0.14514 -0.948591,-2.53594 -0.942022,-5.80464 -1.06114,-8.45411 -0.0016,-0.0185 -0.0098,-0.0361 -0.02296,-0.0498 -0.01327,-0.0137 -0.03075,-0.0226 -0.04947,-0.0251 -0.01871,-0.003 -0.03744,0.001 -0.05292,0.0111 -0.01552,0.01 -0.02682,0.0246 -0.03196,0.0422 -0.15516,0.50869 -0.407411,1.02481 -0.544759,1.53403 -0.825032,3.04649 -1.588661,7.30729 -4.206851,9.44812 -0.364823,0.29846 -0.683919,0.59289 -0.957482,0.88364 -0.534198,0.56647 -0.788906,1.41991 -1.327295,2.06997 -0.05954,0.0715 -0.139449,0.12388 -0.229674,0.151 -0.09029,0.0271 -0.187072,0.0279 -0.278202,0.002 -0.09125,-0.0258 -0.17286,-0.0774 -0.234839,-0.1479 -0.274516,-0.31304 -0.492051,-0.65789 -0.652531,-1.0346 -0.01083,-0.0256 -0.02843,-0.048 -0.05105,-0.0648 -0.0226,-0.0169 -0.04937,-0.0276 -0.0775,-0.031 -0.02812,-0.003 -0.05661,4.5e-4 -0.08247,0.0114 -1.614613,0.678 -1.906683,2.51421 -3.208068,3.50608 -0.08175,0.0619 -0.16766,0.0677 -0.257617,0.0172 l -0.568782,-0.32245 c -0.124029,-0.0697 -0.22169,-0.17711 -0.278063,-0.30507 -0.05633,-0.1282 -0.06826,-0.27027 -0.03383,-0.40455 0.03437,-0.13402 0.113196,-0.25273 0.224251,-0.33811 0.622124,-0.47963 1.466648,-0.93374 1.805412,-1.68065 0.47453,-1.04683 0.149568,-2.25975 -0.621305,-3.08426 -0.269802,-0.29092 -0.618692,-0.35835 -0.983966,-0.49594 -0.0983,-0.0382 -0.156655,-0.1077 -0.175068,-0.20853 -0.163387,-0.93424 -0.667003,-1.48578 -1.186283,-2.2501 -0.475083,-0.69918 -0.754177,-1.71606 -0.83728,-3.05033 -0.268199,-4.32335 3.408776,-6.50998 7.349265,-6.77922 0.02832,-0.002 0.04235,-0.018 0.04197,-0.0472 l 5.43e-4,-0.003 c -3.02e-4,-0.0292 -0.01546,-0.0438 -0.04535,-0.0438 -1.937129,-0.0677 -3.875366,-0.11424 -5.814661,-0.13959 -1.274075,-0.0162 -2.835181,-0.46638 -3.250425,-1.92395 -0.519268,-1.8222 -1.038343,-3.64533 -1.557224,-5.4694 -0.56756,-1.98494 -1.96519,-3.55954 -3.0448,-5.29394 -0.830942,-1.33405 -1.165381,-3.16328 1.025003,-3.41549 7.716308,-0.8935 15.809436,9.10902 19.871772,14.43075 0.06234,0.08 0.106759,0.072 0.133225,-0.0237 0.231953,-0.82874 0.05032,-1.45206 -0.38838,-2.26185 -0.692862,-1.28506 -1.390144,-2.56799 -2.091759,-3.84892 -0.753245,-1.38022 -1.585984,-3.26203 -2.518634,-4.82832 -0.01711,-0.0286 -0.02544,-0.0614 -0.02405,-0.0944 0.0015,-0.033 0.01266,-0.0648 0.03225,-0.0916 0.01959,-0.0267 0.04673,-0.0474 0.0781,-0.0594 l 0.08368,-0.0304 c 0.169961,-0.0642 0.284488,-0.012 0.343603,0.15669 1.032857,2.95128 2.717168,5.81296 4.694397,9.46505 0.169938,0.31237 0.459106,0.53421 0.7582,0.67357 0.0549,0.0248 0.115694,0.0345 0.175553,0.028 0.05987,-0.007 0.116602,-0.0291 0.163866,-0.0652 0.04732,-0.036 0.08345,-0.0841 0.104431,-0.13911 1.249147,-3.33719 3.071878,-6.77902 4.383377,-10.29927 0.05869,-0.15947 0.156778,-0.1871 0.294191,-0.0829 l 0.07314,0.0549 c 0.0289,0.0231 0.04936,0.0548 0.05817,0.0902 0.0089,0.0354 0.0056,0.0725 -0.0093,0.10561 -0.211516,0.45996 -0.51839,0.88693 -0.712793,1.33563 -1.022572,2.36092 -2.063674,4.71431 -3.123256,7.06025 -0.425091,0.94094 -0.563667,1.90026 -0.415627,2.87811 0.0042,0.0212 0.01671,0.04 0.03486,0.0525 0.01809,0.0125 0.0405,0.0177 0.06227,0.0144 0.02177,-0.003 0.04138,-0.0146 0.05459,-0.0318 3.937638,-5.47031 8.45316,-12.10426 15.66937,-13.69132 1.186812,-0.25982 3.539276,-0.3293 4.338109,0.76852 0.37691,0.51544 0.382315,1.11728 0.01602,1.8055 -1.207583,2.27077 -2.352134,4.07619 -2.8075,6.41666 -0.325101,1.66678 -0.606517,3.23133 -1.112753,4.86019 -0.435283,1.40094 -6.875831,1.17246 -8.164671,1.12426 -0.02753,-0.001 -0.04332,0.012 -0.0467,0.0405 l -5.42e-4,0.003 c -0.0031,0.0266 0.0097,0.0426 0.03854,0.0482 2.414511,0.46081 4.849165,1.26616 6.143833,3.48185 1.697388,2.90211 0.379706,4.86043 -0.391336,7.7979 -0.0125,0.0506 -0.03597,0.0978 -0.06861,0.13815 -0.03265,0.0404 -0.07366,0.0733 -0.120263,0.0962 -0.09713,0.0491 -0.197462,0.0773 -0.300531,0.0846 -0.106872,0.006 -0.182568,0.0579 -0.227163,0.15407 -0.491259,1.04068 -1.717648,1.95372 -1.405326,3.21665 0.277748,1.11654 1.498621,2.33665 2.403458,3.00946 0.104965,0.0777 0.179704,0.18788 0.211605,0.31194 0.03226,0.12421 0.01983,0.25516 -0.03508,0.3706 -0.05492,0.11551 -0.149212,0.20852 -0.266677,0.26382 -0.882851,0.42051 -1.344418,-0.17827 -1.760509,-0.91966 -0.587267,-1.04702 -1.378819,-1.92416 -2.374889,-2.63122 -0.01184,-0.008 -0.02612,-0.0135 -0.04085,-0.0149 -0.01468,-0.001 -0.02954,0.001 -0.04301,0.008 -0.01352,0.006 -0.02529,0.0161 -0.03389,0.0281 -0.425213,0.63235 -0.676424,0.95736 -0.753819,0.97533 -0.424116,0.10061 -0.724204,0.0173 -0.899962,-0.2496 -0.436946,-0.66394 -0.755372,-1.32236 -1.374723,-1.83224 -0.539165,-0.44491 -1.179289,-0.8627 -1.642043,-1.31613 -2.819309,-2.74614 -3.659276,-6.32403 -4.934802,-9.75313 -0.04992,-0.13389 -0.07363,-0.12968 -0.07122,0.0124 z"
       sodipodi:nodetypes="cccccccccccccccccccccccccccccccccccccccccccccccccccccccccccccccccccccccccccccccccccccccccccccccccccc"
       style="fill:#c8c8c8;fill-opacity:1;stroke:#c8c8c8;stroke-opacity:0" />
  </g>
</svg>
