<?xml version="1.0" encoding="UTF-8" standalone="no"?>
<svg
   xmlns:dc="http://purl.org/dc/elements/1.1/"
   xmlns:cc="http://creativecommons.org/ns#"
   xmlns:rdf="http://www.w3.org/1999/02/22-rdf-syntax-ns#"
   xmlns:svg="http://www.w3.org/2000/svg"
   xmlns="http://www.w3.org/2000/svg"
   xmlns:sodipodi="http://sodipodi.sourceforge.net/DTD/sodipodi-0.dtd"
   xmlns:inkscape="http://www.inkscape.org/namespaces/inkscape"
   height="107.2"
   version="1.1"
   viewBox="0 0 96.800002 107.2"
   width="96.800003"
   xml:space="preserve"
   id="svg9"
   sodipodi:docname="discard-light.svg"
   inkscape:version="1.0.2-2 (e86c870879, 2021-01-15)"><metadata
     id="metadata13"><rdf:RDF><cc:Work
         rdf:about=""><dc:format>image/svg+xml</dc:format><dc:type
           rdf:resource="http://purl.org/dc/dcmitype/StillImage" /><dc:title></dc:title></cc:Work></rdf:RDF></metadata><sodipodi:namedview
     pagecolor="#ffffff"
     bordercolor="#666666"
     borderopacity="1"
     objecttolerance="10"
     gridtolerance="10"
     guidetolerance="10"
     inkscape:pageopacity="0"
     inkscape:pageshadow="2"
     inkscape:window-width="1920"
     inkscape:window-height="1009"
     id="namedview11"
     showgrid="false"
     inkscape:zoom="6.1459854"
     inkscape:cx="43.945962"
     inkscape:cy="46.167933"
     inkscape:window-x="-8"
     inkscape:window-y="-8"
     inkscape:window-maximized="1"
     inkscape:current-layer="svg9"
     inkscape:document-rotation="0"
     fit-margin-top="0"
     fit-margin-left="10"
     fit-margin-right="10"
     fit-margin-bottom="0" /><style
     type="text/css"
     id="style2">
<![CDATA[
	.st0{fill:#EF3E42;}
	.st1{fill:#FFFFFF;}
	.st2{fill:none;}
	.st3{fill-rule:evenodd;clip-rule:evenodd;fill:#FFFFFF;}
]]>
</style><defs
     id="defs4" /><path
     d="m 78.6,28 v 73 c 0,3.4 -2.8,6.2 -6.2,6.2 H 24.3 c -3.4,0 -6.2,-2.8 -6.2,-6.2 V 28 Z m -15.7,8.1 v 62.8 l 5.064371,0 V 36.1 Z m -17.276247,0 v 62.8 l 5.87791,0 V 36.1 Z m -17.113539,0 V 98.9 H 33.9 V 36.1 Z M 34.3,11.1 V 5.9 C 34.3,2.6 36.9,0 40.2,0 h 16.4 c 3.3,0 5.9,2.6 5.9,5.9 v 5.2 h 18.1 c 3.4,0 6.2,2.8 6.2,6.2 v 4.3 H 10 V 17.2 C 10,13.8 12.8,11 16.2,11 H 34.3 Z M 40.2,4 c -1,0 -1.8,0.8 -1.8,1.8 V 11 H 58.5 V 5.8 C 58.5,4.8 57.7,4 56.7,4 Z"
     id="path6"
     style="fill:#3d3d3d;fill-opacity:1"
     sodipodi:nodetypes="cssssccccccccccccccccccsssscssccssccssccsss" /><rect
     class="st2"
     height="137"
     id="_x3C_Slice_x3E__100_"
     width="98"
     x="3"
     y="-16.799999" /></svg>
