<?xml version="1.0" encoding="UTF-8" standalone="no"?>
<svg
   xmlns:dc="http://purl.org/dc/elements/1.1/"
   xmlns:cc="http://creativecommons.org/ns#"
   xmlns:rdf="http://www.w3.org/1999/02/22-rdf-syntax-ns#"
   xmlns:svg="http://www.w3.org/2000/svg"
   xmlns="http://www.w3.org/2000/svg"
   xmlns:sodipodi="http://sodipodi.sourceforge.net/DTD/sodipodi-0.dtd"
   xmlns:inkscape="http://www.inkscape.org/namespaces/inkscape"
   width="48"
   height="48"
   viewBox="0 0 12.7 12.7"
   version="1.1"
   id="svg8"
   inkscape:version="1.0.2-2 (e86c870879, 2021-01-15)"
   sodipodi:docname="file-json-dark.svg">
  <defs
     id="defs2" />
  <sodipodi:namedview
     id="base"
     pagecolor="#ffffff"
     bordercolor="#666666"
     borderopacity="1.0"
     inkscape:pageopacity="0.0"
     inkscape:pageshadow="2"
     inkscape:zoom="11.2"
     inkscape:cx="18.594667"
     inkscape:cy="19.82802"
     inkscape:document-units="px"
     inkscape:current-layer="g852"
     inkscape:document-rotation="0"
     showgrid="false"
     units="px"
     inkscape:window-width="1920"
     inkscape:window-height="1009"
     inkscape:window-x="1912"
     inkscape:window-y="-8"
     inkscape:window-maximized="1" />
  <metadata
     id="metadata5">
    <rdf:RDF>
      <cc:Work
         rdf:about="">
        <dc:format>image/svg+xml</dc:format>
        <dc:type
           rdf:resource="http://purl.org/dc/dcmitype/StillImage" />
        <dc:title />
      </cc:Work>
    </rdf:RDF>
  </metadata>
  <g
     inkscape:label="Layer 1"
     inkscape:groupmode="layer"
     id="layer1">
    <g
       style="fill:none;stroke-width:0.373484"
       id="g852"
       transform="matrix(0.70841981,0,0,0.70841981,1.3014616,-0.30497257)">
      <path
         id="path905"
         style="fill:#c8c8c8;fill-opacity:1;stroke:none;stroke-width:0.373484px;stroke-linecap:butt;stroke-linejoin:miter;stroke-opacity:1"
         d="M 1.9864955,1.2974087 C 1.2419142,1.3452152 0.8302349,1.7417694 0.73669528,2.4716148 l -0.005784,14.0037032 c 0.12442009,0.503009 0.41961312,0.875429 1.06955662,0.976569 H 12.798527 c 0.594843,-0.163427 1.030391,-0.450749 1.069589,-1.04635 V 5.9085975 L 8.566718,1.3439155 Z M 1.8237339,2.4367424 H 7.8226516 L 12.740381,6.687533 v 9.67153 H 1.8469713 Z"
         sodipodi:nodetypes="ccccccccccccccc" />
      <path
         style="fill:#c8c8c8;fill-opacity:1;stroke:none;stroke-width:0.373484px;stroke-linecap:butt;stroke-linejoin:miter;stroke-opacity:1"
         d="m 7.8226516,2.4367392 0.011647,3.1696021 c 0.084212,0.7863989 0.5733675,0.9788951 1.1160822,1.0928268 L 12.740381,6.687533 11.68311,5.5948681 8.9387535,5.5830782 8.9670419,3.4083869 Z"
         id="path910"
         sodipodi:nodetypes="cccccccc" />
      <text
         xml:space="preserve"
         style="font-weight:bold;font-size:13.9434px;line-height:1.25;font-family:Montserrat;-inkscape-font-specification:'Montserrat Bold';stroke-width:0.13949"
         x="3.1381893"
         y="14.224636"
         id="text914"><tspan
           sodipodi:role="line"
           id="tspan912"
           x="3.1381893"
           y="14.224636"
           style="stroke-width:0.13949" /></text>
      <g
         aria-label="{}"
         id="text918"
         style="font-weight:bold;font-size:9.46761px;line-height:1.25;font-family:Montserrat;-inkscape-font-specification:'Montserrat Bold';stroke-width:0.148205"
         transform="matrix(0.94119477,0,0,0.94119477,0.30211456,0.15196524)">
        <path
           d="m 5.5828764,16.19392 q -0.7535256,0 -1.1695827,-0.45304 -0.4114342,-0.448417 -0.4114342,-1.257417 0,-0.332845 0.09708,-0.656445 0.09708,-0.328223 0.09708,-0.67956 0,-0.231143 -0.1618,-0.374452 -0.1571772,-0.147931 -0.4576628,-0.217274 -0.2958629,-0.07397 -0.7072971,-0.07397 v -1.164959 q 0.3051085,0 0.5501199,-0.04161 0.2450114,-0.04161 0.4160571,-0.124817 0.1756686,-0.08321 0.2681257,-0.208029 0.092457,-0.124817 0.092457,-0.29124 0,-0.365206 -0.09708,-0.6841826 -0.09708,-0.3189771 -0.09708,-0.6518228 0,-0.7812628 0.4114342,-1.2019427 0.4160571,-0.4253028 1.1695827,-0.4253028 0.3004857,0 0.4992686,0.027737 0.1987828,0.023114 0.3652056,0.06472 L 6.3364021,8.8944297 q -0.12944,-0.023114 -0.2542571,-0.03236 -0.1201943,-0.013869 -0.2218972,-0.013869 -0.3051085,0 -0.4669085,0.2080285 -0.1571771,0.2080286 -0.1571771,0.5871028 0,0.3143543 0.1063257,0.605595 0.1063257,0.286617 0.1063257,0.600971 0,0.448417 -0.3189771,0.698051 -0.3189771,0.245012 -0.8922113,0.254257 v 0.19416 q 0.5732342,0.0092 0.8922113,0.263503 0.3189771,0.254257 0.3189771,0.688806 0,0.328223 -0.1063257,0.61484 -0.1063257,0.286617 -0.1063257,0.591725 0,0.42068 0.1571771,0.651823 0.1618,0.22652 0.4669085,0.22652 0.1017029,0 0.2218972,-0.01387 0.1248171,-0.01387 0.2542571,-0.03236 l 0.1109485,1.114108 q -0.1664228,0.04161 -0.3652056,0.06472 -0.1987829,0.02774 -0.4992686,0.02774 z"
           style="font-style:normal;font-variant:normal;font-weight:bold;font-stretch:normal;font-family:Alpenkreuzer;-inkscape-font-specification:'Alpenkreuzer Bold';fill:#c8c8c8;fill-opacity:1;stroke-width:0.148205"
           id="path1532" />
        <path
           d="m 9.1424762,16.19392 q -0.2958628,0 -0.4946456,-0.02774 Q 8.4490477,16.14307 8.278002,16.10146 l 0.1109486,-1.114108 q 0.1340628,0.01849 0.2542571,0.03236 0.1201943,0.01387 0.2218971,0.01387 0.3051086,0 0.4622857,-0.22652 0.1618,-0.231143 0.1618,-0.651823 0,-0.305108 -0.1063257,-0.591725 -0.1063257,-0.286617 -0.1063257,-0.61484 0,-0.434549 0.3189771,-0.688806 0.3189771,-0.254257 0.8922108,-0.263503 v -0.19416 q -0.5732337,-0.0092 -0.8922108,-0.254257 -0.3189771,-0.249634 -0.3189771,-0.698051 0,-0.314354 0.1063257,-0.600971 0.1063257,-0.2912403 0.1063257,-0.6055946 0,-0.3790742 -0.1618,-0.5871028 -0.1571771,-0.2080285 -0.4622857,-0.2080285 -0.1017028,0 -0.2218971,0.013869 -0.1201943,0.00925 -0.2542571,0.03236 L 8.278002,7.7803212 q 0.1710457,-0.041606 0.3698286,-0.06472 0.1987828,-0.027737 0.4946456,-0.027737 0.7535256,0 1.1649598,0.4253028 0.416057,0.4206799 0.416057,1.2019427 0,0.3328457 -0.09708,0.6518228 -0.09708,0.3189765 -0.09708,0.6841825 0,0.166423 0.09246,0.29124 0.09246,0.124817 0.263503,0.208029 0.175669,0.08321 0.42068,0.124817 0.245012,0.04161 0.55012,0.04161 v 1.164959 q -0.411434,0 -0.71192,0.07397 -0.295863,0.06934 -0.457663,0.217274 -0.157177,0.143309 -0.157177,0.374452 0,0.351337 0.09708,0.67956 0.09708,0.3236 0.09708,0.656445 0,0.809 -0.416057,1.257417 -0.4114342,0.45304 -1.1649598,0.45304 z"
           style="font-style:normal;font-variant:normal;font-weight:bold;font-stretch:normal;font-family:Alpenkreuzer;-inkscape-font-specification:'Alpenkreuzer Bold';fill:#c8c8c8;fill-opacity:1;stroke-width:0.148205"
           id="path1534" />
      </g>
    </g>
  </g>
</svg>
