<?xml version="1.0" encoding="UTF-8" standalone="no"?>
<svg
   xmlns:dc="http://purl.org/dc/elements/1.1/"
   xmlns:cc="http://creativecommons.org/ns#"
   xmlns:rdf="http://www.w3.org/1999/02/22-rdf-syntax-ns#"
   xmlns:svg="http://www.w3.org/2000/svg"
   xmlns="http://www.w3.org/2000/svg"
   xmlns:sodipodi="http://sodipodi.sourceforge.net/DTD/sodipodi-0.dtd"
   xmlns:inkscape="http://www.inkscape.org/namespaces/inkscape"
   version="1.1"
   id="Layer_1"
   x="0px"
   y="0px"
   width="42px"
   height="42px"
   viewBox="0 0 42 42"
   xml:space="preserve"
   sodipodi:docname="queue-waiting-dark.svg"
   inkscape:version="1.0.2-2 (e86c870879, 2021-01-15)"><metadata
   id="metadata9"><rdf:RDF><cc:Work
       rdf:about=""><dc:format>image/svg+xml</dc:format><dc:type
         rdf:resource="http://purl.org/dc/dcmitype/StillImage" /><dc:title></dc:title></cc:Work></rdf:RDF></metadata><defs
   id="defs7" /><sodipodi:namedview
   pagecolor="#ffffff"
   bordercolor="#666666"
   borderopacity="1"
   objecttolerance="10"
   gridtolerance="10"
   guidetolerance="10"
   inkscape:pageopacity="0"
   inkscape:pageshadow="2"
   inkscape:window-width="1920"
   inkscape:window-height="1009"
   id="namedview5"
   showgrid="false"
   inkscape:zoom="10.02381"
   inkscape:cx="27.483366"
   inkscape:cy="12.366061"
   inkscape:window-x="1912"
   inkscape:window-y="-8"
   inkscape:window-maximized="1"
   inkscape:current-layer="Layer_1"
   inkscape:document-rotation="0" />

<g
   id="g1067"
   transform="matrix(0.22039248,0,0,0.22039248,38.353707,42.385725)"
   style="fill:#c8c8c8;fill-opacity:1;stroke-width:4.53736"><path
     style="fill:#c8c8c8;fill-opacity:1;stroke:none;stroke-width:4.53736px;stroke-linecap:butt;stroke-linejoin:miter;stroke-opacity:1"
     d="m -122.88532,-154.74339 c -0.0828,-1.31901 1.64911,-4.69063 3.21726,-4.70795 h 85.988552 c 2.524158,0.0641 3.079292,2.56217 3.071019,4.77235 -0.01462,2.30324 -1.262895,4.60873 -3.363498,4.60191 l -86.139933,0.0649 c -1.74816,-0.11755 -2.82943,-3.02961 -2.7734,-4.73116 z"
     id="path920"
     sodipodi:nodetypes="ccccccc" /><path
     style="color:#000000;font-style:normal;font-variant:normal;font-weight:normal;font-stretch:normal;font-size:medium;line-height:normal;font-family:sans-serif;font-variant-ligatures:normal;font-variant-position:normal;font-variant-caps:normal;font-variant-numeric:normal;font-variant-alternates:normal;font-variant-east-asian:normal;font-feature-settings:normal;font-variation-settings:normal;text-indent:0;text-align:start;text-decoration:none;text-decoration-line:none;text-decoration-style:solid;text-decoration-color:#000000;letter-spacing:normal;word-spacing:normal;text-transform:none;writing-mode:lr-tb;direction:ltr;text-orientation:mixed;dominant-baseline:auto;baseline-shift:baseline;text-anchor:start;white-space:normal;shape-padding:0;shape-margin:0;inline-size:0;clip-rule:nonzero;display:inline;overflow:visible;visibility:visible;opacity:1;isolation:auto;mix-blend-mode:normal;color-interpolation:sRGB;color-interpolation-filters:linearRGB;solid-color:#000000;solid-opacity:1;vector-effect:none;fill:#c8c8c8;fill-opacity:1;fill-rule:nonzero;stroke:none;stroke-width:9.08146;stroke-linecap:butt;stroke-linejoin:miter;stroke-miterlimit:4;stroke-dasharray:none;stroke-dashoffset:0;stroke-opacity:1;color-rendering:auto;image-rendering:auto;shape-rendering:auto;text-rendering:auto;enable-background:accumulate;stop-color:#000000;stop-opacity:1"
     d="m -111.87891,-150.80273 -6,0.0351 c 0.11604,19.73672 5.48787,40.1155 27.302738,53.304689 l -0.06445,-0.03906 c 2.098992,1.342074 2.652954,2.755769 2.699219,4.279297 -0.0051,1.151392 -0.273466,2.388002 -0.763672,3.253906 -0.495209,0.874741 -1.061179,1.413485 -2.201172,1.708984 l -0.53125,0.136719 -0.449219,0.316406 c -13.162624,9.313186 -19.899884,18.290804 -23.166014,27.134766 -3.26614,8.843962 -3.06159,17.293578 -3.10743,25.455078 l 6,0.0332 c 0.0464,-8.260664 -0.0677,-15.817444 2.73633,-23.410156 2.80404,-7.592712 8.52462,-15.484759 21.003911,-24.314453 l -0.980469,0.455078 c 2.722252,-0.705639 4.766405,-2.527912 5.916016,-4.558594 1.149611,-2.030682 1.551543,-4.228718 1.550781,-6.246093 v -0.03711 -0.03516 c -0.08219,-3.366909 -1.894799,-6.937677 -5.474609,-9.226567 l -0.0332,-0.0215 -0.03125,-0.0195 c -19.89757,-12.03 -24.29604,-29.46066 -24.40625,-48.20506 z"
     id="path922" /><path
     style="fill:#c8c8c8;fill-opacity:1;stroke:none;stroke-width:4.53736px;stroke-linecap:butt;stroke-linejoin:miter;stroke-opacity:1"
     d="m -102.65558,-126.39904 52.275535,0.19952 c -0.676772,12.47678 -23.404367,21.8022 -23.543942,26.038 l -0.299287,36.114017 c 3.155344,-0.0067 25.771459,19.991501 25.838478,23.344417 H -105.2494 c 0.1288,-4.762421 21.492607,-22.859906 25.14014,-22.745842 l 0.39905,-36.513063 c 0.07754,-3.950899 -22.19284,-14.734019 -22.94537,-26.437049 z"
     id="path924"
     sodipodi:nodetypes="ccccccccc" /><path
     style="color:#000000;font-style:normal;font-variant:normal;font-weight:normal;font-stretch:normal;font-size:medium;line-height:normal;font-family:sans-serif;font-variant-ligatures:normal;font-variant-position:normal;font-variant-caps:normal;font-variant-numeric:normal;font-variant-alternates:normal;font-variant-east-asian:normal;font-feature-settings:normal;font-variation-settings:normal;text-indent:0;text-align:start;text-decoration:none;text-decoration-line:none;text-decoration-style:solid;text-decoration-color:#000000;letter-spacing:normal;word-spacing:normal;text-transform:none;writing-mode:lr-tb;direction:ltr;text-orientation:mixed;dominant-baseline:auto;baseline-shift:baseline;text-anchor:start;white-space:normal;shape-padding:0;shape-margin:0;inline-size:0;clip-rule:nonzero;display:inline;overflow:visible;visibility:visible;opacity:1;isolation:auto;mix-blend-mode:normal;color-interpolation:sRGB;color-interpolation-filters:linearRGB;solid-color:#000000;solid-opacity:1;vector-effect:none;fill:#c8c8c8;fill-opacity:1;fill-rule:nonzero;stroke:none;stroke-width:9.08146;stroke-linecap:butt;stroke-linejoin:miter;stroke-miterlimit:4;stroke-dasharray:none;stroke-dashoffset:0;stroke-opacity:1;color-rendering:auto;image-rendering:auto;shape-rendering:auto;text-rendering:auto;enable-background:accumulate;stop-color:#000000;stop-opacity:1"
     d="m -41.265625,-150.2207 c -0.03277,19.54973 -4.415467,35.98763 -24.371094,48.05273 l -0.0332,0.0195 -0.03125,0.0195 c -3.579805,2.2889 -5.392418,5.859655 -5.474609,9.226566 v 0.03711 0.03516 c -7.62e-4,2.017376 0.40117,4.215413 1.550781,6.246094 1.149611,2.030681 3.193765,3.854907 5.916016,4.560546 l -0.980469,-0.455078 c 12.482634,8.832063 18.234865,16.710616 21.074219,24.25 2.839353,7.539385 2.770598,14.995744 2.867187,23.107422 l 6,-0.07227 c -0.09539,-8.011199 0.05438,-16.369064 -3.251953,-25.148438 -3.306336,-8.779373 -10.063382,-17.724338 -23.222656,-27.035156 l -0.449219,-0.316406 -0.53125,-0.138672 c -1.139995,-0.2955 -1.705964,-0.832292 -2.201172,-1.707031 -0.490208,-0.865908 -0.758562,-2.104461 -0.763672,-3.25586 0.04627,-1.523531 0.600222,-2.935264 2.699219,-4.277344 l -0.06445,0.03906 c 21.756819,-13.154093 27.233168,-32.648193 27.267578,-53.175773 z"
     id="path922-8" /><path
     style="fill:#c8c8c8;fill-opacity:1;stroke:none;stroke-width:4.53736px;stroke-linecap:butt;stroke-linejoin:miter;stroke-opacity:1"
     d="m -123.67598,-30.426318 c -0.0842,-1.36975 1.82757,-4.760977 3.42385,-4.778955 h 87.531584 c 2.569453,0.06662 3.134549,2.660739 3.126128,4.955942 -0.01489,2.391853 -1.285557,4.786039 -3.423855,4.778951 l -87.308287,-0.221252 c -1.77952,-0.122067 -3.40647,-2.967672 -3.34942,-4.734686 z"
     id="path920-1"
     sodipodi:nodetypes="ccccccc" /></g></svg>
