<?xml version="1.0" encoding="UTF-8" standalone="no"?>
<svg
   xmlns:dc="http://purl.org/dc/elements/1.1/"
   xmlns:cc="http://creativecommons.org/ns#"
   xmlns:rdf="http://www.w3.org/1999/02/22-rdf-syntax-ns#"
   xmlns:svg="http://www.w3.org/2000/svg"
   xmlns="http://www.w3.org/2000/svg"
   xmlns:sodipodi="http://sodipodi.sourceforge.net/DTD/sodipodi-0.dtd"
   xmlns:inkscape="http://www.inkscape.org/namespaces/inkscape"
   width="48"
   height="48"
   viewBox="0 0 12.7 12.7"
   version="1.1"
   id="svg8"
   inkscape:version="1.0.2-2 (e86c870879, 2021-01-15)"
   sodipodi:docname="record-active-light.svg">
  <defs
     id="defs2" />
  <sodipodi:namedview
     id="base"
     pagecolor="#ffffff"
     bordercolor="#666666"
     borderopacity="1.0"
     inkscape:pageopacity="0.0"
     inkscape:pageshadow="2"
     inkscape:zoom="11.2"
     inkscape:cx="23.445016"
     inkscape:cy="25.872529"
     inkscape:document-units="mm"
     inkscape:current-layer="layer1"
     inkscape:document-rotation="0"
     showgrid="false"
     units="px"
     inkscape:window-width="1920"
     inkscape:window-height="1009"
     inkscape:window-x="1912"
     inkscape:window-y="-8"
     inkscape:window-maximized="1" />
  <metadata
     id="metadata5">
    <rdf:RDF>
      <cc:Work
         rdf:about="">
        <dc:format>image/svg+xml</dc:format>
        <dc:type
           rdf:resource="http://purl.org/dc/dcmitype/StillImage" />
        <dc:title></dc:title>
      </cc:Work>
    </rdf:RDF>
  </metadata>
  <g
     inkscape:label="Layer 1"
     inkscape:groupmode="layer"
     id="layer1">
    <path
       id="path833"
       style="fill:#c50000;fill-opacity:1;stroke:none;stroke-width:3.99999;stroke-linecap:round;stroke-linejoin:round;stroke-miterlimit:4;stroke-dasharray:none;stroke-opacity:1"
       d="M 24.554688 7.5585938 A 17.007874 17.007874 0 0 0 7.5585938 24.566406 A 17.007874 17.007874 0 0 0 24.566406 41.574219 A 17.007874 17.007874 0 0 0 41.574219 24.566406 A 17.007874 17.007874 0 0 0 24.566406 7.5585938 A 17.007874 17.007874 0 0 0 24.554688 7.5585938 z M 24.566406 11.337891 A 13.228346 13.228346 0 0 1 37.794922 24.566406 A 13.228346 13.228346 0 0 1 24.566406 37.794922 A 13.228346 13.228346 0 0 1 11.337891 24.566406 A 13.228346 13.228346 0 0 1 24.566406 11.337891 z "
       transform="scale(0.26458333)" />
    <circle
       style="fill:#c50000;fill-opacity:1;stroke:none;stroke-width:1.05833;stroke-linecap:round;stroke-linejoin:round;stroke-miterlimit:4;stroke-dasharray:none;stroke-opacity:1"
       id="path833-2"
       cx="6.5"
       cy="6.5"
       r="2.5" />
  </g>
</svg>
