<?xml version="1.0" encoding="UTF-8" standalone="no"?>
<svg
   xmlns:dc="http://purl.org/dc/elements/1.1/"
   xmlns:cc="http://creativecommons.org/ns#"
   xmlns:rdf="http://www.w3.org/1999/02/22-rdf-syntax-ns#"
   xmlns:svg="http://www.w3.org/2000/svg"
   xmlns="http://www.w3.org/2000/svg"
   xmlns:sodipodi="http://sodipodi.sourceforge.net/DTD/sodipodi-0.dtd"
   xmlns:inkscape="http://www.inkscape.org/namespaces/inkscape"
   fill="#000000"
   height="800"
   width="1000"
   version="1.1"
   id="Layer_1"
   viewBox="0 0 526.9875 421.59"
   xml:space="preserve"
   sodipodi:docname="region-add-light.svg"
   inkscape:version="1.0.2-2 (e86c870879, 2021-01-15)"><metadata
   id="metadata13"><rdf:RDF><cc:Work
       rdf:about=""><dc:format>image/svg+xml</dc:format><dc:type
         rdf:resource="http://purl.org/dc/dcmitype/StillImage" /><dc:title></dc:title></cc:Work></rdf:RDF></metadata><defs
   id="defs11">
	
</defs><sodipodi:namedview
   pagecolor="#ffffff"
   bordercolor="#666666"
   borderopacity="1"
   objecttolerance="10"
   gridtolerance="10"
   guidetolerance="10"
   inkscape:pageopacity="0"
   inkscape:pageshadow="2"
   inkscape:window-width="1920"
   inkscape:window-height="1009"
   id="namedview9"
   showgrid="false"
   inkscape:zoom="0.64"
   inkscape:cx="378.64499"
   inkscape:cy="376.92663"
   inkscape:window-x="1912"
   inkscape:window-y="-8"
   inkscape:window-maximized="1"
   inkscape:current-layer="Layer_1"
   inkscape:document-rotation="0" />

<path
   style="fill:none;stroke:#3d3d3d;stroke-width:39.5240625;stroke-linecap:round;stroke-linejoin:miter;stroke-miterlimit:4;stroke-dasharray:none;stroke-opacity:1"
   d="M 380.62962,140.84 V 391.27199"
   id="path840" /><path
   style="fill:none;stroke:#3d3d3d;stroke-width:39.5240625;stroke-linecap:round;stroke-linejoin:miter;stroke-miterlimit:4;stroke-dasharray:none;stroke-opacity:1"
   d="M 505.60129,266.30031 H 255.16931"
   id="path840-4" /><g
   aria-label="T"
   transform="matrix(0.88756284,0,0,0.97815392,9.6291684,23.620503)"
   id="text1442"
   style="font-size:57.8646px;line-height:1.25;font-family:sans-serif;fill:#3d3d3d;fill-opacity:1;stroke:none;stroke-width:0.565584"><path
     d="m 312.80015,65.353032 v 74.659058 h -23.74746 c -4.33986,-17.2238 0.35423,-10.74058 -4.93497,-18.1997 -5.2892,-7.59475 -12.54489,-13.62986 -21.76708,-18.10534 -5.15358,-2.44116 -14.17234,-3.66175 -27.05628,-3.66175 h -13.63115 v 166.51115 c 0,14.10452 0.74591,22.91985 2.23774,26.44599 1.62745,3.52613 4.67891,6.6454 9.15438,9.35781 4.61109,2.57678 10.84963,3.86518 18.71562,3.86518 h 9.15438 v 34.97959 H 116.48956 v -34.97959 h 9.15438 c 8.00161,0 14.44358,-1.42402 19.32591,-4.27204 3.52613,-1.89869 6.30635,-5.15358 8.34066,-9.76467 1.49183,-3.2549 2.23774,-11.79899 2.23774,-25.63227 V 100.0453 h -13.88528 c -18.58,0 -32.07423,3.93299 -40.4827,11.79898 -11.798975,10.98526 -10.613908,7.82474 -13.733178,28.16781 H 65.021601 V 65.353032 Z"
     style="font-style:normal;font-variant:normal;font-weight:bold;font-stretch:normal;font-size:416.626px;font-family:'Times New Roman';-inkscape-font-specification:'Times New Roman, Bold';fill:#3d3d3d;fill-opacity:1;stroke:none;stroke-width:0.565584"
     id="path1446"
     sodipodi:nodetypes="cccccscsccsccccsccscsccccc" /></g><path
   style="fill:none;stroke:#3d3d3d;stroke-width:22.133475;stroke-linecap:butt;stroke-linejoin:miter;stroke-miterlimit:4;stroke-dasharray:none;stroke-opacity:1"
   d="m 485.8166,196.33177 0,-173.408609 H 21.408867 V 401.82797 l 287.866923,0"
   id="path1444"
   sodipodi:nodetypes="ccccc" /></svg>
