<?xml version="1.0" encoding="UTF-8" standalone="no"?>
<svg
   xmlns:dc="http://purl.org/dc/elements/1.1/"
   xmlns:cc="http://creativecommons.org/ns#"
   xmlns:rdf="http://www.w3.org/1999/02/22-rdf-syntax-ns#"
   xmlns:svg="http://www.w3.org/2000/svg"
   xmlns="http://www.w3.org/2000/svg"
   xmlns:sodipodi="http://sodipodi.sourceforge.net/DTD/sodipodi-0.dtd"
   xmlns:inkscape="http://www.inkscape.org/namespaces/inkscape"
   width="48"
   height="48"
   viewBox="0 0 12.7 12.7"
   version="1.1"
   id="svg8"
   inkscape:version="1.0.2-2 (e86c870879, 2021-01-15)"
   sodipodi:docname="save-light.svg">
  <defs
     id="defs2">
    <inkscape:path-effect
       effect="fillet_chamfer"
       id="path-effect2760"
       is_visible="true"
       lpeversion="1"
       satellites_param="F,0,0,1,0,0.5,0,2 @ F,0,0,1,0,0.5,0,2 @ F,0,0,1,0,0.5,0,2 @ F,0,0,1,0,0.5,0,2 @ F,0,0,1,0,0.5,0,2 | F,0,0,1,0,0.5,0,2 @ F,0,0,1,0,0.5,0,2 @ F,0,0,1,0,0.5,0,2 @ F,0,0,1,0,0.5,0,2 | F,0,0,1,0,0.5,0,2 @ F,0,0,1,0,0.5,0,2 @ F,0,0,1,0,0.5,0,2 @ F,0,0,1,0,0.5,0,2"
       unit="px"
       method="auto"
       mode="F"
       radius="0.5"
       chamfer_steps="1"
       flexible="false"
       use_knot_distance="true"
       apply_no_radius="true"
       apply_with_radius="true"
       only_selected="false"
       hide_knots="false" />
  </defs>
  <sodipodi:namedview
     id="base"
     pagecolor="#ffffff"
     bordercolor="#666666"
     borderopacity="1.0"
     inkscape:pageopacity="0.0"
     inkscape:pageshadow="2"
     inkscape:zoom="7.919596"
     inkscape:cx="30.247523"
     inkscape:cy="31.291035"
     inkscape:document-units="px"
     inkscape:current-layer="layer1"
     inkscape:document-rotation="0"
     showgrid="true"
     units="px"
     inkscape:window-width="1920"
     inkscape:window-height="1009"
     inkscape:window-x="-8"
     inkscape:window-y="-8"
     inkscape:window-maximized="1">
    <inkscape:grid
       type="xygrid"
       id="grid2762" />
  </sodipodi:namedview>
  <metadata
     id="metadata5">
    <rdf:RDF>
      <cc:Work
         rdf:about="">
        <dc:format>image/svg+xml</dc:format>
        <dc:type
           rdf:resource="http://purl.org/dc/dcmitype/StillImage" />
        <dc:title></dc:title>
      </cc:Work>
    </rdf:RDF>
  </metadata>
  <g
     inkscape:label="Layer 1"
     inkscape:groupmode="layer"
     id="layer1">
    <path
       id="path2749"
       style="fill:#3d3d3d;fill-opacity:1;stroke:none;stroke-width:0.264583px;stroke-linecap:butt;stroke-linejoin:miter;stroke-opacity:1"
       d="m 1.0583333,1.5583333 v 9.5833337 a 0.5,0.5 45 0 0 0.5,0.5 h 9.5833337 a 0.5,0.5 135 0 0 0.5,-0.5 V 3.675 a 1.5,1.5 71.565051 0 0 -0.3,-0.9 l -0.9875,-1.3166667 a 0.99999999,0.99999999 26.565051 0 0 -0.8,-0.4 l -7.9958337,0 a 0.5,0.5 135 0 0 -0.5,0.5 z m 7.4083334,1.0583334 0,2.175 a 0.5,0.5 135 0 1 -0.5,0.5 H 3.9395833 a 0.5,0.5 45 0 1 -0.5,-0.5 l 0,-2.175 a 0.5,0.5 135 0 1 0.5,-0.5 h 4.0270834 a 0.5,0.5 45 0 1 0.5,0.5 z m -4.7916667,4.2625 5.879167,0 a 0.5,0.5 45 0 1 0.5,0.5 V 10.6125 a 0.5,0.5 135 0 1 -0.5,0.5 H 3.675 a 0.5,0.5 45 0 1 -0.5,-0.5 l 0,-3.2333333 a 0.5,0.5 135 0 1 0.5,-0.5 z"
       sodipodi:nodetypes="cccccccccccccccc"
       inkscape:path-effect="#path-effect2760"
       inkscape:original-d="M 1.0583333,1.0583333 V 11.641667 H 11.641667 V 3.175 l -1.5875,-2.1166667 z m 7.4083334,1.0583334 v 3.175 H 3.4395833 v -3.175 z m -5.2916667,4.7625 6.879167,0 V 11.1125 l -6.879167,0 z" />
    <path
       style="fill:#3d3d3d;fill-opacity:1;stroke:none;stroke-width:0.264583;stroke-linecap:butt;stroke-linejoin:miter;stroke-miterlimit:4;stroke-dasharray:none;stroke-opacity:1"
       d="m 6.35,2.6458333 1.5875,0 V 4.7625 l -1.5875,0 z"
       id="path2758"
       sodipodi:nodetypes="ccccc" />
  </g>
</svg>
