<?xml version="1.0" encoding="UTF-8" standalone="no"?>
<svg
   xmlns:dc="http://purl.org/dc/elements/1.1/"
   xmlns:cc="http://creativecommons.org/ns#"
   xmlns:rdf="http://www.w3.org/1999/02/22-rdf-syntax-ns#"
   xmlns:svg="http://www.w3.org/2000/svg"
   xmlns="http://www.w3.org/2000/svg"
   xmlns:sodipodi="http://sodipodi.sourceforge.net/DTD/sodipodi-0.dtd"
   xmlns:inkscape="http://www.inkscape.org/namespaces/inkscape"
   width="512"
   height="512"
   viewBox="0 0 135.46667 135.46667"
   version="1.1"
   id="svg866"
   inkscape:version="1.0.2-2 (e86c870879, 2021-01-15)"
   sodipodi:docname="sd-version-3-dark.svg">
  <defs
     id="defs860">
    <rect
       x="10.958051"
       y="34.477768"
       width="110.64958"
       height="69.490076"
       id="rect857" />
  </defs>
  <sodipodi:namedview
     id="base"
     pagecolor="#ffffff"
     bordercolor="#666666"
     borderopacity="1.0"
     inkscape:pageopacity="0.0"
     inkscape:pageshadow="2"
     inkscape:zoom="1.4"
     inkscape:cx="243.75589"
     inkscape:cy="286.44254"
     inkscape:document-units="mm"
     inkscape:current-layer="text855"
     inkscape:document-rotation="0"
     showgrid="false"
     units="px"
     width="512px"
     inkscape:window-width="1920"
     inkscape:window-height="1009"
     inkscape:window-x="1912"
     inkscape:window-y="-8"
     inkscape:window-maximized="1" />
  <metadata
     id="metadata863">
    <rdf:RDF>
      <cc:Work
         rdf:about="">
        <dc:format>image/svg+xml</dc:format>
        <dc:type
           rdf:resource="http://purl.org/dc/dcmitype/StillImage" />
        <dc:title />
      </cc:Work>
    </rdf:RDF>
  </metadata>
  <g
     inkscape:label="Layer 1"
     inkscape:groupmode="layer"
     id="layer1">
    <rect
       style="fill:#c8c8c8;fill-opacity:1;stroke-width:10.5833;stroke-linecap:round;stroke-linejoin:round"
       id="rect1431"
       width="132.29167"
       height="90.132782"
       x="1.7008928"
       y="25.527931"
       rx="21.166666"
       ry="24.035408" />
    <g
       aria-label="XL"
       transform="scale(0.80484602,1.2424737)"
       id="text836"
       style="font-style:normal;font-weight:normal;font-size:15.824px;line-height:1.25;font-family:sans-serif;fill:#3d3d3d;fill-opacity:1;stroke:none;stroke-width:0.264583">
      <g
         aria-label="1.5"
         transform="scale(1.2424737,0.80484603)"
         id="text845"
         style="font-style:normal;font-weight:normal;font-size:22.4758px;line-height:1.25;font-family:sans-serif;fill:#3d3d3d;fill-opacity:1;stroke:none;stroke-width:0.0700041">
        <g
           aria-label="SD3"
           id="text855"
           style="font-size:3.52778px;line-height:1.25;font-family:sans-serif;white-space:pre;shape-inside:url(#rect857)">
          <path
             d="m 21.259116,97.127459 q -3.91069,0 -7.336583,-0.731828 -3.393573,-0.695236 -6.3023502,-2.122302 l 0.840314,-7.391462 q 3.5551702,1.719797 6.8517862,2.634581 3.328933,0.878194 6.463949,0.878194 4.524764,0 6.722507,-1.792978 2.197744,-1.792979 2.197744,-5.452119 0,-4.647107 -4.201568,-6.806001 l -7.950658,-4.098237 q -4.686363,-2.415031 -7.207304,-5.818031 -2.4886202,-3.403 -2.4886202,-8.452612 0,-6.806001 3.6198112,-10.538323 3.619812,-3.732322 10.245361,-3.732322 4.621723,0 8.176896,1.536837 3.555172,1.536839 6.851786,5.013023 l -4.524765,5.195977 q -2.844137,-2.634579 -5.332758,-3.805504 -2.4563,-1.207517 -5.138839,-1.207517 -3.328935,0 -5.17116,1.82957 -1.809907,1.792979 -1.809907,5.342345 0,2.524805 1.195832,4.134827 1.19583,1.573431 3.522851,2.817538 l 6.722508,3.585958 q 5.106521,2.707762 7.75674,6.110762 2.65022,3.402999 2.65022,8.745343 0,7.062141 -4.072289,10.611507 -4.039969,3.512774 -12.281504,3.512774 z"
             style="font-style:normal;font-variant:normal;font-weight:normal;font-stretch:normal;font-size:50.8px;font-family:Marlett;-inkscape-font-specification:Marlett;stroke:#3d3d3d;stroke-width:3.96874993;stroke-miterlimit:4;stroke-dasharray:none;stroke-opacity:1"
             id="path863" />
          <path
             d="m 51.447953,96.395631 v -6.952366 h 5.106521 q 7.078024,0 10.633197,-4.573923 3.587492,-4.573926 3.587492,-13.721775 0,-9.916269 -3.587492,-14.819516 -3.555173,-4.939839 -10.633197,-4.939839 h -4.977241 l -0.775674,-6.952366 h 5.752915 q 21.007837,0 21.007837,26.711721 0,25.248064 -21.007837,25.248064 z m -6.011472,0 V 44.435846 h 6.463949 v 51.959785 z"
             style="font-style:normal;font-variant:normal;font-weight:normal;font-stretch:normal;font-size:50.8px;font-family:Marlett;-inkscape-font-specification:Marlett;stroke:#3d3d3d;stroke-width:3.96874993;stroke-miterlimit:4;stroke-dasharray:none;stroke-opacity:1"
             id="path865" />
          <path
             d="M 81.882775,99.241275 V 87.029041 h 1.329937 q 9.517368,5.633108 17.829478,5.633108 6.56657,0 10.26547,-2.795054 3.69887,-2.838054 3.69887,-8.256159 0,-4.300081 -2.90923,-6.622127 -2.86768,-2.365045 -11.92788,-2.365045 h -3.657331 v -9.761187 h 3.449527 q 13.964354,0 13.964354,-8.815168 0,-3.698071 -2.99237,-5.590107 -2.99236,-1.935037 -8.51991,-1.935037 -7.439339,0 -17.455434,5.504105 H 83.711437 V 39.943139 q 10.556383,-4.085078 20.323113,-4.085078 11.55384,0 17.45543,4.386083 5.94317,4.386085 5.94317,11.653223 0,5.418105 -3.28329,9.503183 -3.28328,4.042078 -8.76927,5.418104 v 0.602011 q 6.27563,1.161022 9.93297,5.074097 3.65732,3.870074 3.65732,10.019191 0,9.460183 -6.98217,15.13629 -6.98218,5.676117 -18.91005,5.676117 -11.553835,0 -21.195885,-4.085085 z m -5.319752,2.709055 z"
             style="font-style:normal;font-variant:normal;font-weight:bold;font-stretch:normal;font-family:Meiryo;-inkscape-font-specification:'Meiryo Bold';stroke-width:0.0700041"
             id="path867" />
        </g>
      </g>
    </g>
  </g>
</svg>
