<?xml version="1.0" encoding="UTF-8" standalone="no"?>
<svg
   xmlns:dc="http://purl.org/dc/elements/1.1/"
   xmlns:cc="http://creativecommons.org/ns#"
   xmlns:rdf="http://www.w3.org/1999/02/22-rdf-syntax-ns#"
   xmlns:svg="http://www.w3.org/2000/svg"
   xmlns="http://www.w3.org/2000/svg"
   xmlns:sodipodi="http://sodipodi.sourceforge.net/DTD/sodipodi-0.dtd"
   xmlns:inkscape="http://www.inkscape.org/namespaces/inkscape"
   width="512"
   height="512"
   viewBox="0 0 135.46667 135.46667"
   version="1.1"
   id="svg866"
   inkscape:version="1.0.2-2 (e86c870879, 2021-01-15)"
   sodipodi:docname="sd-version-flux-k-light.svg">
  <defs
     id="defs860">
    <rect
       x="10.958051"
       y="34.477768"
       width="110.64958"
       height="69.490076"
       id="rect857" />
  </defs>
  <sodipodi:namedview
     id="base"
     pagecolor="#ffffff"
     bordercolor="#666666"
     borderopacity="1.0"
     inkscape:pageopacity="0.0"
     inkscape:pageshadow="2"
     inkscape:zoom="0.98994949"
     inkscape:cx="328.88448"
     inkscape:cy="205.53794"
     inkscape:document-units="mm"
     inkscape:current-layer="layer1"
     inkscape:document-rotation="0"
     showgrid="false"
     units="px"
     width="512px"
     inkscape:window-width="1920"
     inkscape:window-height="1009"
     inkscape:window-x="1912"
     inkscape:window-y="-8"
     inkscape:window-maximized="1" />
  <metadata
     id="metadata863">
    <rdf:RDF>
      <cc:Work
         rdf:about="">
        <dc:format>image/svg+xml</dc:format>
        <dc:type
           rdf:resource="http://purl.org/dc/dcmitype/StillImage" />
        <dc:title></dc:title>
      </cc:Work>
    </rdf:RDF>
  </metadata>
  <g
     inkscape:label="Layer 1"
     inkscape:groupmode="layer"
     id="layer1">
    <rect
       style="fill:#3d3d3d;fill-opacity:1;stroke-width:10.5833;stroke-linecap:round;stroke-linejoin:round"
       id="rect1431"
       width="132.29167"
       height="90.132782"
       x="1.7008928"
       y="25.527931"
       rx="21.166666"
       ry="24.035408" />
    <g
       aria-label="XL"
       transform="scale(0.80484602,1.2424737)"
       id="text836"
       style="font-style:normal;font-weight:normal;font-size:15.824px;line-height:1.25;font-family:sans-serif;fill:#c8c8c8;fill-opacity:1;stroke:none;stroke-width:0.264583">
      <g
         aria-label="1.5"
         transform="scale(1.2424737,0.80484603)"
         id="text845"
         style="font-style:normal;font-weight:normal;font-size:22.4758px;line-height:1.25;font-family:sans-serif;fill:#c8c8c8;fill-opacity:1;stroke:none;stroke-width:0.0700041">
        <g
           aria-label="SD3"
           id="text855"
           style="font-size:3.52778px;line-height:1.25;font-family:sans-serif;white-space:pre;shape-inside:url(#rect857);fill:#c8c8c8;fill-opacity:1">
          <g
             aria-label="F"
             id="text1505"
             style="font-style:normal;font-variant:normal;font-weight:bold;font-stretch:normal;font-size:113.772px;line-height:1.25;font-family:'Times New Roman';-inkscape-font-specification:'Times New Roman, Bold';stroke-width:0.0185219;fill:#c8c8c8;fill-opacity:1">
            <path
               d="m 45.897961,42.058617 v 25.062944 h 2.166557 c 3.333164,0 6.055248,-0.499975 8.166252,-1.499923 2.111004,-0.99995 3.888692,-2.685049 5.333063,-5.055299 1.481406,-2.37025 2.44432,-3.435635 2.888742,-7.472468 h 1.944346 V 90.925284 H 64.452575 C 63.748907,83.777499 61.823079,80.677651 58.67509,78.418507 c -3.110953,-2.29618 -6.64781,-3.44427 -10.610572,-3.44427 h -2.166557 l 0,16.639917 c 0,3.851655 0.203693,6.258945 0.61108,7.221855 0.444422,0.96291 1.277713,1.814721 2.499873,2.555431 1.259195,0.70367 2.944295,1.0555 5.055299,1.0555 h 2.499873 l 0,6.8663 H 17.177197 l 0,-6.8663 h 2.499873 c 2.185074,0 3.944244,-0.38887 5.27751,-1.16661 0.962914,-0.51849 1.703617,-1.407341 2.222109,-2.666531 0.407387,-0.88885 0.61108,-3.22206 0.61108,-6.999645 l 0,-41.000416 c 0,-3.851656 -0.203693,-6.258942 -0.61108,-7.221856 -0.407387,-0.962914 -1.240678,-1.796205 -2.499873,-2.499873 -1.22216,-0.740703 -2.888742,-1.111055 -4.999746,-1.111055 H 17.177197 V 33.98373 h 63.55233 v 21.610014 h -2.277663 c -0.518492,-5.073816 -1.851758,-5.091111 -3.999797,-7.535432 -2.111003,-2.44432 -5.184921,-4.166455 -9.221754,-5.166404 -2.222109,-0.555527 -6.333012,-0.833291 -12.332707,-0.833291 z"
               style="font-style:normal;font-variant:normal;font-weight:bold;font-stretch:normal;font-size:113.772px;font-family:'Times New Roman';-inkscape-font-specification:'Times New Roman, Bold';stroke-width:0.0185219;fill:#c8c8c8;fill-opacity:1"
               id="path1511"
               sodipodi:nodetypes="ccssccccccscsccsccccsccssscscccccccsc" />
          </g>
          <g
             aria-label=".1"
             id="text1509"
             style="font-weight:bold;font-size:57.0326px;line-height:1.25;font-family:sans-serif;-inkscape-font-specification:'sans-serif Bold';stroke-width:0.0185219;fill:#c8c8c8;fill-opacity:1">
            <path
               d="M 81.771775,109.31325 H 71.356642 V 98.369004 h 10.415133 z"
               style="font-size:57.0326px;stroke-width:0.0185219;fill:#c8c8c8;fill-opacity:1"
               id="path1514" />
            <text
               xml:space="preserve"
               style="font-weight:bold;font-size:9.87777px;line-height:1.25;font-family:Montserrat;-inkscape-font-specification:'Montserrat Bold';stroke-width:0.00490059;fill:#c8c8c8;fill-opacity:1"
               x="90.337097"
               y="107.44235"
               id="text886"><tspan
                 sodipodi:role="line"
                 id="tspan884"
                 x="90.337097"
                 y="107.44235"
                 style="stroke-width:0.00490059;fill:#c8c8c8;fill-opacity:1"></tspan></text>
          </g>
          <g
             aria-label="K"
             transform="scale(0.92385068,1.082426)"
             id="text890"
             style="font-weight:bold;font-size:20.7838px;line-height:1.25;font-family:Montserrat;-inkscape-font-specification:'Montserrat Bold';stroke-width:0.0185219;fill:#c8c8c8;fill-opacity:1">
            <path
               d="m 135.48567,101.12224 h -14.66576 c -2.20943,-3.822233 -4.2014,-7.01723 -5.97591,-9.584987 -1.7745,-2.567758 -3.02199,-3.847644 -6.81096,-6.244609 h -0.77838 v 9.68462 c 0,0.705644 0.11308,1.303481 0.33925,1.79351 0.22616,0.490031 0.0999,0.901656 0.77837,1.234876 0.31315,0.15681 0.77417,0.313619 1.38307,0.470429 0.62629,0.15681 1.24389,0.274416 1.85279,0.352822 v 2.293339 H 91.932018 v -2.293339 c 1.073303,-0.04092 1.310176,-0.06072 2.218818,-0.529233 0.626296,-0.274416 1.061224,-0.65664 1.304783,-1.14667 0.243559,-0.49003 0.365339,-1.107469 0.365339,-1.852313 V 65.722469 c 0,-0.686043 -0.104382,-1.264278 -0.313147,-1.734707 -0.208765,-0.470429 -0.588765,-1.077043 -1.28465,-1.449465 0,0 -0.436122,-0.605647 -2.291143,-0.843876 v -2.29334 h 20.328512 v 2.29334 c -0.53931,0.0588 -1.1917,0.147011 -1.95717,0.264617 -0.74807,0.098 -0.81317,0.245015 -1.35248,0.441027 -0.67849,0.254815 -1.13081,0.65664 -1.35697,1.205474 -0.22617,0.548834 -0.33925,1.156471 -0.33925,1.822911 v 11.597012 h 1.09602 c 1.35697,-1.391685 2.50616,-1.845123 4.31546,-3.805244 1.8093,-1.96012 3.06512,-3.073583 4.05675,-4.32806 1.39177,-1.744507 2.4095,-2.385641 3.05319,-3.404903 0.66109,-1.019264 0.99164,-1.901318 0.99164,-2.646163 0,-0.33322 -0.31315,-0.588037 -0.93945,-0.764447 -0.62629,-0.176411 -1.58313,-0.303818 -2.87052,-0.382224 v -2.29334 h 16.10102 v 2.29334 c -1.94847,0.235215 -1.05243,-0.07285 -2.37461,0.495587 -1.32218,0.548834 -1.36998,1.896355 -2.67476,3.209635 -1.65692,2.230909 -3.74627,4.84066 -4.96407,6.232345 -1.2004,1.372085 -3.62692,4.443736 -5.5232,6.599868 1.67012,2.29334 1.10574,2.769751 3.45435,6.101955 2.34861,3.312604 4.68852,6.546802 7.01973,9.702595 0.59151,0.803649 1.26999,1.577897 2.03546,2.322743 0.76547,0.725245 1.60923,1.313281 2.53128,1.764108 0.43493,0.215614 0.93074,0.382224 1.48745,0.49983 0.55671,0.117608 1.03514,0.186212 1.43527,0.205814 z"
               style="font-style:normal;font-variant:normal;font-weight:bold;font-stretch:normal;font-size:53.4439px;font-family:Georgia;-inkscape-font-specification:'Georgia Bold';fill:#c8c8c8;fill-opacity:1;stroke-width:0.0185219"
               id="path896"
               sodipodi:nodetypes="ccsccsscccccccsssscccccccssccsccssccccccccccccscc" />
          </g>
        </g>
      </g>
    </g>
  </g>
</svg>
