<?xml version="1.0" encoding="UTF-8" standalone="no"?>
<svg
   version="1.1"
   viewBox="0 0 135.46667 135.46667"
   height="512"
   width="512"
   id="svg5"
   sodipodi:docname="sd-version-krea2-dark.svg"
   inkscape:version="1.4.4 (dcaf3e7d9e, 2026-05-05)"
   xmlns:inkscape="http://www.inkscape.org/namespaces/inkscape"
   xmlns:sodipodi="http://sodipodi.sourceforge.net/DTD/sodipodi-0.dtd"
   xmlns="http://www.w3.org/2000/svg"
   xmlns:svg="http://www.w3.org/2000/svg">
  <defs
     id="defs5" />
  <sodipodi:namedview
     id="namedview5"
     pagecolor="#ffffff"
     bordercolor="#000000"
     borderopacity="0.25"
     inkscape:showpageshadow="2"
     inkscape:pageopacity="0.0"
     inkscape:pagecheckerboard="0"
     inkscape:deskcolor="#d1d1d1"
     inkscape:zoom="1.5742188"
     inkscape:cx="256"
     inkscape:cy="256"
     inkscape:window-width="1692"
     inkscape:window-height="1059"
     inkscape:window-x="0"
     inkscape:window-y="0"
     inkscape:window-maximized="1"
     inkscape:current-layer="svg5" />
  <rect
     ry="24.035408"
     rx="21.166666"
     y="25.527931"
     x="1.7008928"
     height="90.132782"
     width="132.29167"
     style="fill:#c8c8c8;fill-opacity:1"
     id="rect1" />
  <g
     transform="matrix(3.8951213,0,0,3.8951213,20.267428,24.101348)"
     id="g4">
    <path
       fill="#3d3d3d"
       d="M 8.34057,1.26646 C 10.1061,1.14218 11.6638,2.37142 11.8911,4.06824 12.1069,5.68015 11.0037,7.23915 9.34608,7.60419 8.93062,7.69566 8.46886,7.67023 8.02919,7.72601 6.95925,7.86191 6.04308,8.30843 5.2807,9.06558 L 5.27279,9.06966 5.26385,9.0689 5.2568,9.06354 5.25394,9.05533 C 5.25366,9.04931 5.25521,9.04398 5.25861,9.03933 5.26343,9.03249 5.26583,9.02497 5.26583,9.01677 5.25535,7.76661 5.2521,6.253 5.25606,4.47593 5.25946,2.79675 6.58613,1.38951 8.34057,1.26646 Z"
       id="path1" />
    <path
       fill="#3d3d3d"
       d="M 8.5264,15.3045 C 6.27918,15.2869 4.66832,13.0758 5.44996,11.0041 5.88114,9.86055 6.9457,9.0267 8.20737,8.89545 8.59097,8.85566 9.05188,8.86591 9.42189,8.79701 11.322,8.44386 12.7897,6.99068 13.0867,5.14047 13.1525,4.7299 13.1181,4.24058 13.215,3.805 c 0.4486,-2.01592 2.7586,-3.147131 4.6987,-2.23576 1.0115,0.47578 1.6895,1.37402 1.8573,2.44699 0.0345,0.22011 0.0457,0.49273 0.0335,0.81785 -0.22,5.84142 -5.2089,10.51882 -11.2781,10.47042 z"
       id="path2" />
    <path
       fill="#3d3d3d"
       d="m 11.3567,16.2337 c -0.0102,-0.0047 -0.0171,-0.0115 -0.0208,-0.0205 -7e-4,-0.0018 -0.001,-0.0038 -9e-4,-0.0057 10e-5,-0.0019 6e-4,-0.0038 0.0016,-0.0055 9e-4,-0.0017 0.0022,-0.0032 0.0037,-0.0044 0.0016,-0.0012 0.0034,-0.002 0.0054,-0.0025 2.3055,-0.5277 4.303,-1.5893 5.9923,-3.1849 0.0303,-0.0287 0.0579,-0.0265 0.0828,0.0066 0.271,0.3568 0.554,0.7403 0.7808,1.1066 0.932,1.5045 1.4601,3.134 1.5841,4.8887 0.0249,0.3538 0.0327,0.6271 0.0234,0.8199 -0.0837,1.705 -1.5106,3.0806 -3.3093,3.0909 -1.5926,0.0086 -2.9927,-1.0779 -3.2952,-2.5979 -0.0713,-0.3597 -0.0493,-0.8581 -0.11,-1.2383 -0.1875,-1.1698 -0.7591,-2.1165 -1.7149,-2.8403 -0.0043,-0.0036 -0.0119,-0.0078 -0.023,-0.0127 z"
       id="path3" />
    <path
       fill="#3d3d3d"
       d="M 7.98752,22.874 C 6.63495,22.6386 5.5466,21.5882 5.30446,20.2814 5.27132,20.1026 5.25476,19.8301 5.25476,19.464 c -2.9e-4,-1.4413 -5.7e-4,-2.8827 -8.5e-4,-4.3243 0,-0.0142 0.00538,-0.0165 0.01614,-0.007 0.88444,0.7863 1.81392,1.2666 3.02801,1.3466 0.00113,2e-4 0.10988,0.0038 0.32625,0.0106 1.58069,0.0505 2.91969,1.0865 3.22849,2.5914 0.4571,2.2251 -1.5573,4.1943 -3.86528,3.7927 z"
       id="path4" />
  </g>
</svg>
