<?xml version="1.0" encoding="UTF-8" standalone="no"?>
<svg
   xmlns:dc="http://purl.org/dc/elements/1.1/"
   xmlns:cc="http://creativecommons.org/ns#"
   xmlns:rdf="http://www.w3.org/1999/02/22-rdf-syntax-ns#"
   xmlns:svg="http://www.w3.org/2000/svg"
   xmlns="http://www.w3.org/2000/svg"
   xmlns:sodipodi="http://sodipodi.sourceforge.net/DTD/sodipodi-0.dtd"
   xmlns:inkscape="http://www.inkscape.org/namespaces/inkscape"
   width="512"
   height="512"
   viewBox="0 0 135.46667 135.46667"
   version="1.1"
   id="svg866"
   inkscape:version="1.0.2-2 (e86c870879, 2021-01-15)"
   sodipodi:docname="sd-version-illu-dark.svg">
  <defs
     id="defs860">
    <rect
       x="10.958051"
       y="34.477768"
       width="110.64958"
       height="69.490076"
       id="rect857" />
  </defs>
  <sodipodi:namedview
     id="base"
     pagecolor="#ffffff"
     bordercolor="#666666"
     borderopacity="1.0"
     inkscape:pageopacity="0.0"
     inkscape:pageshadow="2"
     inkscape:zoom="1.4"
     inkscape:cx="358.26687"
     inkscape:cy="287.1844"
     inkscape:document-units="mm"
     inkscape:current-layer="text855"
     inkscape:document-rotation="0"
     showgrid="false"
     units="px"
     width="512px"
     inkscape:window-width="1920"
     inkscape:window-height="1009"
     inkscape:window-x="-8"
     inkscape:window-y="-8"
     inkscape:window-maximized="1" />
  <metadata
     id="metadata863">
    <rdf:RDF>
      <cc:Work
         rdf:about="">
        <dc:format>image/svg+xml</dc:format>
        <dc:type
           rdf:resource="http://purl.org/dc/dcmitype/StillImage" />
        <dc:title />
      </cc:Work>
    </rdf:RDF>
  </metadata>
  <g
     inkscape:label="Layer 1"
     inkscape:groupmode="layer"
     id="layer1">
    <rect
       style="fill:#c8c8c8;fill-opacity:1;stroke-width:10.5833;stroke-linecap:round;stroke-linejoin:round"
       id="rect1431"
       width="132.29167"
       height="90.132782"
       x="1.7008928"
       y="25.527931"
       rx="21.166666"
       ry="24.035408" />
    <g
       aria-label="XL"
       transform="scale(0.80484602,1.2424737)"
       id="text836"
       style="font-style:normal;font-weight:normal;font-size:15.824px;line-height:1.25;font-family:sans-serif;fill:#3d3d3d;fill-opacity:1;stroke:none;stroke-width:0.264583">
      <g
         aria-label="1.5"
         transform="scale(1.2424737,0.80484603)"
         id="text845"
         style="font-style:normal;font-weight:normal;font-size:22.4758px;line-height:1.25;font-family:sans-serif;fill:#3d3d3d;fill-opacity:1;stroke:none;stroke-width:0.0700041">
        <g
           aria-label="SD3"
           id="text855"
           style="font-size:3.52778px;line-height:1.25;font-family:sans-serif;white-space:pre;shape-inside:url(#rect857)">
          <g
             aria-label="Il"
             transform="scale(1.1062625,0.9039446)"
             id="text865"
             style="font-weight:bold;font-size:102.305px;line-height:1.25;font-family:Montserrat;-inkscape-font-specification:'Montserrat Bold';stroke:#3d3d3d;stroke-width:2.11666661;stroke-miterlimit:4;stroke-dasharray:none;stroke-opacity:1">
            <path
               d="M 25.474757,39.568203 28.27216,41.566348 27.372994,40.2176 27.822577,39.568203 28.27216,40.2176 h 0.949118 l 2.34782,-0.649397 0.949119,1.348748 7.443088,-1.348748 h 0.949119 l 0.949118,1.348748 v 1.348748 l -0.399629,4.795547 -1.398701,-0.699351 -2.34782,1.998144 -0.949118,-1.298793 h -1.398701 q 0,1.998144 -2.297867,3.346892 l -0.499536,3.496753 0.449583,3.446799 -0.449583,0.649397 h -0.449582 l 0.449582,0.649397 0.499536,6.294155 -0.449582,0.649397 0.449582,0.699351 v 2.747448 q 0,3.346893 -0.949118,3.346893 l 1.448655,13.587382 -0.449583,0.649397 0.899165,1.348748 v 0.649397 l -0.899165,1.348747 0.899165,6.743738 -0.449582,2.747449 0.949118,1.348744 v 3.39685 l 4.545779,-0.89917 v 0.69935 l 0.449583,-0.69935 h 0.449582 l 3.197031,0.39963 0.949119,-1.3987 1.398701,0.69935 1.398701,-0.69935 0.949119,1.3987 0.449582,-0.69935 h 0.449583 q 3.296939,1.19889 3.296939,2.74745 v 0.6494 l -3.296939,1.99814 h -1.848284 l -1.398701,-0.0999 h -0.949119 q 0,4.1961 -4.146149,4.1961 -1.448655,0 -4.14615,2.89731 -2.397774,0 -5.145223,4.69564 h -1.448654 l -5.345037,0.39963 -0.499536,-1.34875 -2.098052,1.44865 -3.746521,-0.49953 -1.398701,-5.34504 q 3.197031,-5.29508 8.442161,-7.49304 l 1.398701,-3.34689 -0.949119,-4.096199 0.499536,-0.649397 -0.499536,-3.446799 v -8.741882 l -0.949118,-8.092486 0.499536,-0.749304 v -0.649397 l -0.499536,-0.699351 v -0.649396 l 1.898237,-5.444944 -1.898237,-1.998145 v -1.348747 l 0.499536,-4.096197 -0.499536,-0.649397 0.499536,-4.745593 V 53.75503 l -5.644759,0.69935 h -1.398701 q 0,2.048098 -0.899165,2.048098 -4.69564,-4.745593 -4.69564,-7.443088 0,-4.745593 8.442161,-6.793691 l 0.449583,0.69935 h 0.449582 q 1.848284,-0.54949 3.746521,-3.396846 z"
               style="font-style:normal;font-variant:normal;font-weight:bold;font-stretch:normal;font-family:Quikhand;-inkscape-font-specification:'Quikhand Bold';stroke:#3d3d3d;stroke-width:2.11666661;stroke-miterlimit:4;stroke-dasharray:none;stroke-opacity:1"
               id="path883" />
            <path
               d="m 51.950174,33.773584 q 3.696568,0 7.992578,4.545779 l -0.649397,0.749304 v 0.749305 l 0.649397,2.347819 -0.649397,4.495826 1.348748,1.548562 v 1.498608 l -1.348748,2.247913 0.649397,0.799257 v 0.749305 l -1.148933,9.091557 q 1.348748,0 1.348748,4.745594 l -0.699351,7.592949 0.699351,4.545779 h -0.699351 l 1.998145,3.796474 -1.298794,2.247913 1.998144,9.141511 -0.69935,2.297866 q 0.549489,12.888035 3.846428,12.888035 1.948191,-3.34689 10.690073,-10.640122 h 1.298794 l 1.348748,1.548562 q -3.496753,4.49583 -5.345037,10.59017 h -1.998144 v 0.7493 l 0.69935,0.79926 q 0,4.54578 -4.69564,4.54578 0,3.04717 -3.996289,3.04717 -7.243274,0 -10.490258,-22.029546 V 97.71421 l 0.649397,-2.297867 Q 51.450638,91.22024 51.450638,73.3868 L 50.10189,71.888191 50.801241,71.138887 50.10189,70.389583 v -0.799258 l 0.699351,-2.247912 -0.699351,-3.246985 v -0.749305 l 0.699351,-0.749304 v -0.799258 l -0.199814,-9.840861 0.69935,-2.997217 -0.69935,-0.749304 v -0.749305 l 0.69935,-0.799257 V 45.912312 L 49.95203,39.068667 Z"
               style="font-style:normal;font-variant:normal;font-weight:bold;font-stretch:normal;font-family:Quikhand;-inkscape-font-specification:'Quikhand Bold';stroke:#3d3d3d;stroke-width:2.11666661;stroke-miterlimit:4;stroke-dasharray:none;stroke-opacity:1"
               id="path885" />
          </g>
          <path
             style="fill:#3d3d3d;fill-opacity:1;stroke:#3d3d3d;stroke-width:1.05833331;stroke-linecap:butt;stroke-linejoin:miter;stroke-miterlimit:4;stroke-dasharray:none;stroke-opacity:1"
             d="m 111.5082,60.421599 c 7.52622,0.470389 15.99322,2.822333 17.20279,6.249452 1.20957,3.42712 -1.20957,5.039882 -2.88954,5.51027 -1.67995,0.470389 -4.30069,-0.470388 -5.37587,-1.478366 -1.07516,-1.007975 -1.20957,-3.897507 -3.02393,-5.174278 -1.81436,-1.276768 -3.7631,-2.284745 -7.12303,-1.343966 -3.35992,0.940778 -5.91346,2.284744 -6.92142,6.047856 -1.00798,3.763111 -0.4704,6.988635 0.33598,8.198207 0.80639,1.209571 2.08314,2.351944 3.83031,3.158326 1.74716,0.806381 2.48634,1.075174 2.48634,1.075174 0,0 2.28475,-1.007976 4.03191,-1.142373 1.74715,-0.134397 5.37586,-0.806381 6.78704,0.671984 1.41117,1.478367 1.14237,1.142373 1.14237,1.948755 0,0.806381 -0.33599,1.209572 -2.08315,1.814356 -1.74715,0.604787 -5.44308,0.604787 -6.85424,0.201596 -1.41118,-0.403191 -3.02393,-1.075174 -3.02393,-1.075174 0,0 -2.55354,0.940778 -3.69591,1.67996 -1.14237,0.739182 -3.69591,2.822334 -3.62871,6.249452 0.0672,3.42712 0.80638,5.711866 2.08315,7.59342 1.27677,1.88156 3.42712,2.82232 5.44308,3.02392 2.01594,0.20159 5.30866,0.4032 6.98863,-1.27675 1.67995,-1.67997 2.28474,-3.695924 2.62073,-4.367896 0.33599,-0.671994 2.15035,-2.822345 3.7631,-2.822345 1.61278,0 4.5695,0.268796 5.10709,2.687946 0.53759,2.419145 -0.1344,3.695905 -1.34396,4.838275 -1.20957,1.14236 -6.18226,3.29272 -7.25744,3.62872 -1.07517,0.33598 -8.2654,1.00798 -10.01256,0.73918 -1.74716,-0.2688 -9.20618,-1.47837 -11.692527,-3.62873 -2.486338,-2.15034 -3.763107,-4.367878 -3.561514,-6.787027 0.201594,-2.419143 1.612757,-6.854234 2.687932,-7.996609 1.07518,-1.142374 3.292729,-4.2335 3.964709,-4.502294 0.67199,-0.268795 0.2688,-0.806382 0.2688,-0.806382 0,0 -2.419148,-1.276769 -3.225529,-2.889531 -0.806374,-1.612762 -3.359923,-4.569494 -3.292725,-7.929413 0.06726,-3.359921 0.536276,-4.519256 2.553536,-7.727819 1.436451,-2.284744 9.781988,-4.367896 13.708488,-4.367896 z"
             id="path881"
             sodipodi:nodetypes="csssssssscssssscssssssssssssssscsssc" />
        </g>
      </g>
    </g>
  </g>
</svg>
