<?xml version="1.0" encoding="UTF-8" standalone="no"?>
<svg
   xmlns:dc="http://purl.org/dc/elements/1.1/"
   xmlns:cc="http://creativecommons.org/ns#"
   xmlns:rdf="http://www.w3.org/1999/02/22-rdf-syntax-ns#"
   xmlns:svg="http://www.w3.org/2000/svg"
   xmlns="http://www.w3.org/2000/svg"
   xmlns:sodipodi="http://sodipodi.sourceforge.net/DTD/sodipodi-0.dtd"
   xmlns:inkscape="http://www.inkscape.org/namespaces/inkscape"
   width="512"
   height="512"
   viewBox="0 0 135.46667 135.46667"
   version="1.1"
   id="svg866"
   inkscape:version="1.0.2-2 (e86c870879, 2021-01-15)"
   sodipodi:docname="sd-version-flux-2-dark.svg">
  <defs
     id="defs860">
    <rect
       x="87.123511"
       y="71.24851"
       width="35.340774"
       height="40.443452"
       id="rect876" />
    <rect
       x="10.958051"
       y="34.477768"
       width="110.64958"
       height="69.490076"
       id="rect857" />
  </defs>
  <sodipodi:namedview
     id="base"
     pagecolor="#ffffff"
     bordercolor="#666666"
     borderopacity="1.0"
     inkscape:pageopacity="0.0"
     inkscape:pageshadow="2"
     inkscape:zoom="1.979899"
     inkscape:cx="338.12538"
     inkscape:cy="386.8539"
     inkscape:document-units="mm"
     inkscape:current-layer="text1509"
     inkscape:document-rotation="0"
     showgrid="false"
     units="px"
     width="512px"
     inkscape:window-width="1918"
     inkscape:window-height="2061"
     inkscape:window-x="1912"
     inkscape:window-y="0"
     inkscape:window-maximized="0" />
  <metadata
     id="metadata863">
    <rdf:RDF>
      <cc:Work
         rdf:about="">
        <dc:format>image/svg+xml</dc:format>
        <dc:type
           rdf:resource="http://purl.org/dc/dcmitype/StillImage" />
        <dc:title></dc:title>
      </cc:Work>
    </rdf:RDF>
  </metadata>
  <g
     inkscape:label="Layer 1"
     inkscape:groupmode="layer"
     id="layer1">
    <rect
       style="fill:#c8c8c8;fill-opacity:1;stroke-width:10.5833;stroke-linecap:round;stroke-linejoin:round"
       id="rect1431"
       width="132.29167"
       height="90.132782"
       x="1.7008928"
       y="25.527931"
       rx="21.166666"
       ry="24.035408" />
    <g
       aria-label="XL"
       transform="scale(0.80484602,1.2424737)"
       id="text836"
       style="font-style:normal;font-weight:normal;font-size:15.824px;line-height:1.25;font-family:sans-serif;fill:#3d3d3d;fill-opacity:1;stroke:none;stroke-width:0.264583">
      <g
         aria-label="1.5"
         transform="scale(1.2424737,0.80484603)"
         id="text845"
         style="font-style:normal;font-weight:normal;font-size:22.4758px;line-height:1.25;font-family:sans-serif;fill:#3d3d3d;fill-opacity:1;stroke:none;stroke-width:0.0700041">
        <g
           aria-label="SD3"
           id="text855"
           style="font-size:3.52778px;line-height:1.25;font-family:sans-serif;white-space:pre;shape-inside:url(#rect857)">
          <g
             aria-label="F"
             id="text1505"
             style="font-style:normal;font-variant:normal;font-weight:bold;font-stretch:normal;font-size:113.772px;line-height:1.25;font-family:'Times New Roman';-inkscape-font-specification:'Times New Roman, Bold';stroke-width:0.0185219">
            <path
               d="m 45.897961,42.058617 v 25.062944 h 2.166557 c 3.333164,0 6.055248,-0.499975 8.166252,-1.499923 2.111004,-0.99995 3.888692,-2.685049 5.333063,-5.055299 1.481406,-2.37025 2.44432,-3.435635 2.888742,-7.472468 h 1.944346 V 90.925284 H 64.452575 C 63.748907,83.777499 61.823079,80.677651 58.67509,78.418507 c -3.110953,-2.29618 -6.64781,-3.44427 -10.610572,-3.44427 h -2.166557 l 0,16.639917 c 0,3.851655 0.203693,6.258945 0.61108,7.221855 0.444422,0.96291 1.277713,1.814721 2.499873,2.555431 1.259195,0.70367 2.944295,1.0555 5.055299,1.0555 h 2.499873 l 0,6.8663 H 17.177197 l 0,-6.8663 h 2.499873 c 2.185074,0 3.944244,-0.38887 5.27751,-1.16661 0.962914,-0.51849 1.703617,-1.407341 2.222109,-2.666531 0.407387,-0.88885 0.61108,-3.22206 0.61108,-6.999645 l 0,-41.000416 c 0,-3.851656 -0.203693,-6.258942 -0.61108,-7.221856 -0.407387,-0.962914 -1.240678,-1.796205 -2.499873,-2.499873 -1.22216,-0.740703 -2.888742,-1.111055 -4.999746,-1.111055 H 17.177197 V 33.98373 h 63.55233 v 21.610014 h -2.277663 c -0.518492,-5.073816 -1.851758,-5.091111 -3.999797,-7.535432 -2.111003,-2.44432 -5.184921,-4.166455 -9.221754,-5.166404 -2.222109,-0.555527 -6.333012,-0.833291 -12.332707,-0.833291 z"
               style="font-style:normal;font-variant:normal;font-weight:bold;font-stretch:normal;font-size:113.772px;font-family:'Times New Roman';-inkscape-font-specification:'Times New Roman, Bold';stroke-width:0.0185219"
               id="path1511"
               sodipodi:nodetypes="ccssccccccscsccsccccsccssscscccccccsc" />
          </g>
          <g
             aria-label=".1"
             id="text1509"
             style="font-weight:bold;font-size:57.0326px;line-height:1.25;font-family:sans-serif;-inkscape-font-specification:'sans-serif Bold';stroke-width:0.0185219">
            <g
               aria-label="2"
               transform="matrix(1.9028351,0,0,1.9028351,-79.21761,-69.08493)"
               id="text874"
               style="font-weight:bold;font-size:9.87778px;line-height:1.25;font-family:Montserrat;-inkscape-font-specification:'Montserrat Bold';white-space:pre;shape-inside:url(#rect876);stroke-width:0.00973384">
              <path
                 d="M 104.64738,93.684831 H 88.577448 v -5.633224 c 4.781451,-2.300718 6.97371,-4.466733 8.004857,-6.462928 1.044367,-1.996195 1.663261,-3.833461 1.566551,-5.849778 -0.05882,-1.226346 -0.387298,-2.617049 -1.288934,-3.450378 -0.594179,-0.549166 -1.543387,-0.842026 -2.333547,-0.668018 -1.660889,0.36576 -2.73776,1.298844 -3.861446,3.334699 l -2.033674,-2.376108 c 0.713871,-2.538209 1.822728,-3.86917 3.276911,-5.085395 1.454181,-1.216225 3.530377,-1.253253 5.434034,-1.253253 1.361643,0 2.604303,0.317276 3.72798,0.951829 1.12369,0.634551 2.00281,1.50706 2.63736,2.617527 0.63455,1.097247 0.95183,2.128394 0.95183,3.093442 0,1.758239 -0.4189,5.82537 -1.39717,7.636487 -1.61612,3.218192 -2.30713,5.013636 -6.240028,7.949702 h 3.234998 c 1.42774,0 2.35313,-0.05949 2.77616,-0.178468 0.43625,-0.118979 0.79319,-0.317276 1.0708,-0.594892 0.27762,-0.290837 0.64117,-0.89234 1.09064,-1.804509 h 2.25891 z"
                 style="font-style:normal;font-variant:normal;font-weight:bold;font-stretch:normal;font-size:25.4px;font-family:serif;-inkscape-font-specification:'serif Bold';stroke-width:0.00973384"
                 id="path880"
                 sodipodi:nodetypes="ccccaaaccssscsccsccccc" />
            </g>
            <path
               d="M 81.771775,109.31325 H 71.356642 V 98.369004 h 10.415133 z"
               style="font-size:57.0326px;stroke-width:0.0185219"
               id="path1514" />
            <text
               xml:space="preserve"
               style="font-weight:bold;font-size:9.87777px;line-height:1.25;font-family:Montserrat;-inkscape-font-specification:'Montserrat Bold';stroke-width:0.00490059"
               x="154.21452"
               y="109.84778"
               id="text872"><tspan
                 sodipodi:role="line"
                 id="tspan870"
                 x="154.21452"
                 y="109.84778"
                 style="stroke-width:0.00490059" /></text>
          </g>
        </g>
      </g>
    </g>
  </g>
</svg>
