<?xml version="1.0" encoding="UTF-8" standalone="no"?>
<svg
   xmlns:dc="http://purl.org/dc/elements/1.1/"
   xmlns:cc="http://creativecommons.org/ns#"
   xmlns:rdf="http://www.w3.org/1999/02/22-rdf-syntax-ns#"
   xmlns:svg="http://www.w3.org/2000/svg"
   xmlns="http://www.w3.org/2000/svg"
   xmlns:sodipodi="http://sodipodi.sourceforge.net/DTD/sodipodi-0.dtd"
   xmlns:inkscape="http://www.inkscape.org/namespaces/inkscape"
   width="48"
   height="48"
   viewBox="0 0 12.7 12.7"
   version="1.1"
   id="svg8"
   inkscape:version="1.0.2-2 (e86c870879, 2021-01-15)"
   sodipodi:docname="web-connection-light.svg">
  <defs
     id="defs2" />
  <sodipodi:namedview
     id="base"
     pagecolor="#ffffff"
     bordercolor="#666666"
     borderopacity="1.0"
     inkscape:pageopacity="0.0"
     inkscape:pageshadow="2"
     inkscape:zoom="11.2"
     inkscape:cx="26.019329"
     inkscape:cy="21.639945"
     inkscape:document-units="px"
     inkscape:current-layer="g852"
     inkscape:document-rotation="0"
     showgrid="false"
     units="px"
     inkscape:window-width="1920"
     inkscape:window-height="1009"
     inkscape:window-x="-8"
     inkscape:window-y="-8"
     inkscape:window-maximized="1" />
  <metadata
     id="metadata5">
    <rdf:RDF>
      <cc:Work
         rdf:about="">
        <dc:format>image/svg+xml</dc:format>
        <dc:type
           rdf:resource="http://purl.org/dc/dcmitype/StillImage" />
        <dc:title></dc:title>
      </cc:Work>
    </rdf:RDF>
  </metadata>
  <g
     inkscape:label="Layer 1"
     inkscape:groupmode="layer"
     id="layer1">
    <g
       style="fill:none;stroke-width:0.373484"
       id="g852"
       transform="matrix(0.70841981,0,0,0.70841981,1.3014616,-0.30497257)">
      <path
         d="m 7.0873159,1.3525414 c -2.9849406,0 -5.4047184,2.4197777 -5.4047184,5.4047183 0,2.9849029 2.4197778,5.4047003 5.4047184,5.4047003 2.9849601,0 5.4047561,-2.4197974 5.4047561,-5.4047003 0,-2.9849406 -2.419796,-5.4047183 -5.4047561,-5.4047183 z M 0.82922382,6.7572597 c 0,-3.456251 2.80184108,-6.25809105 6.25809208,-6.25809105 3.4562131,0 6.2581331,2.80184005 6.2581331,6.25809105 0,3.4562513 -2.80192,6.2580763 -6.2581331,6.2580763 -3.456251,0 -6.25809208,-2.801825 -6.25809208,-6.2580763 z"
         id="path832"
         style="stroke-width:0.13949;fill:#3d3d3d;fill-opacity:1;stroke:none" />
      <path
         d="M 12.776436,7.1365003 H 1.3981197 V 6.3779433 H 12.776436 Z"
         id="path834"
         style="stroke-width:0.13949;fill:#3d3d3d;fill-opacity:1;stroke:none" />
      <path
         d="M 6.70799,12.446418 V 1.0680636 H 7.4665469 V 12.446418 Z M 9.8134178,6.7572218 c 0,-2.0601838 -0.7408825,-4.0982936 -2.1933389,-5.445889 L 8.0715151,0.82476595 C 9.685032,2.3217496 10.477155,4.5505322 10.477155,6.7572218 c 0,2.2066991 -0.792123,4.4354912 -2.4056399,5.9325042 L 7.6200789,12.203111 C 9.0725353,10.855535 9.8134178,8.8174151 9.8134178,6.7572218 Z m -6.0450446,1.9e-5 c 0,-2.2035037 0.7663037,-4.4311295 2.3306567,-5.92889065 L 6.5580422,1.307777 C 5.1513268,2.6546139 4.4321105,4.6938615 4.4321105,6.7572408 4.43212,8.82062 5.1513458,10.859896 6.5580612,12.206714 L 6.0990394,12.686122 C 4.5346959,11.188352 3.7683826,8.9607539 3.7683732,6.7572408 Z"
         id="path836"
         style="stroke-width:0.13949;fill:#3d3d3d;fill-opacity:1;stroke:none" />
      <path
         d="m 7.0873159,3.3987393 c 2.056941,0 4.1486811,0.3803594 5.5665191,1.1724162 0.160055,0.089386 0.217326,0.2915608 0.127911,0.4515784 -0.08932,0.1600081 -0.29157,0.2172697 -0.451531,0.1278832 -1.27997,-0.7149873 -3.2440731,-1.0881405 -5.2428991,-1.0881405 -1.9988355,0 -3.9629291,0.3731532 -5.2428802,1.0881405 C 1.6844181,5.2400036 1.4822437,5.182742 1.3928572,5.0227339 1.3034803,4.8627163 1.3607323,4.6605419 1.5207499,4.5711555 2.938673,3.7790987 5.0303654,3.3987393 7.0873159,3.3987393 Z m 0,6.5349583 c 2.056941,0 4.1486811,-0.3804159 5.5665191,-1.1724442 0.160055,-0.089377 0.217326,-0.2915608 0.127911,-0.4515689 -0.08932,-0.1600176 -0.29157,-0.2172697 -0.451531,-0.1278927 -1.27997,0.7149873 -3.2440731,1.0881689 -5.2428991,1.0881689 -1.9988355,0 -3.9629291,-0.3731816 -5.2428802,-1.0881595 -0.1600176,-0.089386 -0.362192,-0.032134 -0.4515785,0.1278833 -0.089377,0.1600081 -0.032125,0.362192 0.1278927,0.4515689 1.4179231,0.7920283 3.5096155,1.1724442 5.566566,1.1724442 z"
         id="path838"
         style="stroke-width:0.13949;fill:#3d3d3d;fill-opacity:1;stroke:none" />
      <path
         style="fill:#3d3d3d;fill-opacity:1;stroke:none;stroke-width:0.373484px;stroke-linecap:butt;stroke-linejoin:miter;stroke-opacity:1"
         d="m 0.21176455,15.052534 12.37120145,0 v -1.531361 l 2.432523,2.487373 -2.432523,2.303967 v -1.301882 l -12.37120155,0 z"
         id="path854"
         sodipodi:nodetypes="cccccccc" />
      <path
         style="fill:#3d3d3d;fill-opacity:1;stroke:none;stroke-width:0.373484px;stroke-linecap:butt;stroke-linejoin:miter;stroke-opacity:1"
         d="M 5.8468847,15.137187 8.250265,15.124927 V 12.760465 H 5.8468851 Z"
         id="path889"
         sodipodi:nodetypes="ccccc" />
    </g>
  </g>
</svg>
