<?xml version="1.0" encoding="UTF-8" standalone="no"?>
<svg
   xmlns:dc="http://purl.org/dc/elements/1.1/"
   xmlns:cc="http://creativecommons.org/ns#"
   xmlns:rdf="http://www.w3.org/1999/02/22-rdf-syntax-ns#"
   xmlns:svg="http://www.w3.org/2000/svg"
   xmlns="http://www.w3.org/2000/svg"
   xmlns:sodipodi="http://sodipodi.sourceforge.net/DTD/sodipodi-0.dtd"
   xmlns:inkscape="http://www.inkscape.org/namespaces/inkscape"
   width="48"
   height="48"
   viewBox="0 0 12.7 12.7"
   version="1.1"
   id="svg8"
   inkscape:version="1.0.2-2 (e86c870879, 2021-01-15)"
   sodipodi:docname="workspace-custom-dark.svg">
  <defs
     id="defs2" />
  <sodipodi:namedview
     id="base"
     pagecolor="#ffffff"
     bordercolor="#666666"
     borderopacity="1.0"
     inkscape:pageopacity="0.0"
     inkscape:pageshadow="2"
     inkscape:zoom="7.919596"
     inkscape:cx="15.785224"
     inkscape:cy="20.153889"
     inkscape:document-units="mm"
     inkscape:current-layer="layer1"
     inkscape:document-rotation="0"
     showgrid="false"
     units="px"
     inkscape:window-width="1920"
     inkscape:window-height="1009"
     inkscape:window-x="1912"
     inkscape:window-y="-8"
     inkscape:window-maximized="1" />
  <metadata
     id="metadata5">
    <rdf:RDF>
      <cc:Work
         rdf:about="">
        <dc:format>image/svg+xml</dc:format>
        <dc:type
           rdf:resource="http://purl.org/dc/dcmitype/StillImage" />
        <dc:title></dc:title>
      </cc:Work>
    </rdf:RDF>
  </metadata>
  <g
     inkscape:label="Layer 1"
     inkscape:groupmode="layer"
     id="layer1">
    <rect
       style="fill:#c8c8c8;fill-opacity:1;stroke-width:2.64583;stroke-linecap:round"
       id="rect841"
       width="4.3824973"
       height="5.2872062"
       x="8.0642281"
       y="4.0691795"
       rx="0.68508184"
       ry="0.68508184" />
    <rect
       style="fill:#c8c8c8;fill-opacity:1;stroke-width:2.64583;stroke-linecap:round"
       id="rect841-8"
       width="4.3696823"
       height="3.8506324"
       x="0.21125294"
       y="0.69689387"
       rx="0.68508184"
       ry="0.68508184" />
    <rect
       style="fill:#c8c8c8;fill-opacity:1;stroke-width:2.64583;stroke-linecap:round"
       id="rect841-8-3"
       width="4.3696823"
       height="4.1104908"
       x="0.15997936"
       y="8.4217815"
       rx="0.68508184"
       ry="0.68508178" />
    <path
       style="fill:none;stroke:#c8c8c8;stroke-width:1.05833;stroke-linecap:butt;stroke-linejoin:miter;stroke-miterlimit:4;stroke-dasharray:none;stroke-opacity:1"
       d="m 4.723212,1.8358331 c 2.9176597,-0.00708 0.2321619,3.5148572 3.2146867,3.5147862"
       id="path932"
       sodipodi:nodetypes="cc" />
    <path
       style="fill:none;stroke:#c8c8c8;stroke-width:1.05833;stroke-linecap:butt;stroke-linejoin:miter;stroke-miterlimit:4;stroke-dasharray:none;stroke-opacity:1"
       d="M 4.8110202,9.5049235 C 7.7877387,9.5096571 4.9727196,7.1190549 7.9552444,7.1191027"
       id="path932-0"
       sodipodi:nodetypes="cc" />
    <circle
       style="fill:#e5e5e5;fill-opacity:1;stroke-width:2.64583;stroke-linecap:round"
       id="path883-9"
       sodipodi:type="arc"
       sodipodi:cx="8.0849037"
       sodipodi:cy="5.3620954"
       sodipodi:rx="0.62280935"
       sodipodi:ry="0.62280935"
       sodipodi:start="0"
       sodipodi:end="6.2688736"
       sodipodi:open="true"
       sodipodi:arc-type="arc"
       d="M 8.7077131,5.3620954 A 0.62280935,0.62280935 0 0 1 8.0871321,5.9849007 0.62280935,0.62280935 0 0 1 7.4621103,5.3665521 0.62280935,0.62280935 0 0 1 8.0782187,4.7393219 0.62280935,0.62280935 0 0 1 8.7076493,5.3531822" />
    <circle
       style="fill:#e5e5e5;fill-opacity:1;stroke-width:2.64583;stroke-linecap:round"
       id="path883-0"
       sodipodi:type="arc"
       sodipodi:cx="8.1350164"
       sodipodi:cy="7.1327553"
       sodipodi:rx="0.62280935"
       sodipodi:ry="0.62280935"
       sodipodi:start="0"
       sodipodi:end="6.2688736"
       sodipodi:open="true"
       sodipodi:arc-type="arc"
       d="M 8.7578258,7.1327553 A 0.62280935,0.62280935 0 0 1 8.1372448,7.7555606 0.62280935,0.62280935 0 0 1 7.512223,7.137212 0.62280935,0.62280935 0 0 1 8.1283315,6.5099818 0.62280935,0.62280935 0 0 1 8.757762,7.1238421" />
    <circle
       style="fill:#e5e5e5;fill-opacity:1;stroke-width:2.64583;stroke-linecap:round"
       id="path883-04"
       sodipodi:type="arc"
       sodipodi:cx="4.5337353"
       sodipodi:cy="9.5610847"
       sodipodi:rx="0.62280935"
       sodipodi:ry="0.62280935"
       sodipodi:start="0"
       sodipodi:end="6.2688736"
       sodipodi:open="true"
       sodipodi:arc-type="arc"
       d="M 5.1565446,9.5610847 A 0.62280935,0.62280935 0 0 1 4.5359636,10.18389 0.62280935,0.62280935 0 0 1 3.9109419,9.5655414 0.62280935,0.62280935 0 0 1 4.5270503,8.9383113 0.62280935,0.62280935 0 0 1 5.1564808,9.5521716" />
    <circle
       style="fill:#e5e5e5;fill-opacity:1;stroke-width:2.64583;stroke-linecap:round"
       id="path883"
       sodipodi:type="arc"
       sodipodi:cx="4.5116138"
       sodipodi:cy="1.878155"
       sodipodi:rx="0.62280935"
       sodipodi:ry="0.62280935"
       sodipodi:start="0"
       sodipodi:end="6.2688736"
       sodipodi:open="true"
       sodipodi:arc-type="arc"
       d="M 5.1344232,1.878155 A 0.62280935,0.62280935 0 0 1 4.5138422,2.5009604 0.62280935,0.62280935 0 0 1 3.8888204,1.8826117 0.62280935,0.62280935 0 0 1 4.5049289,1.2553815 0.62280935,0.62280935 0 0 1 5.1343594,1.8692418" />
  </g>
</svg>
